<svg width="224" height="233" viewBox="0 0 224 233" fill="none" xmlns="http://www.w3.org/2000/svg">
<path d="M112.5 65.0117C114.013 65.0117 115.239 63.7853 115.239 62.2725C115.239 60.7596 114.013 59.5332 112.5 59.5332C110.987 59.5332 109.761 60.7596 109.761 62.2725C109.761 63.7853 110.987 65.0117 112.5 65.0117Z" fill="black"/>
<path d="M112.5 121.258C114.013 121.258 115.239 120.031 115.239 118.519C115.239 117.006 114.013 115.779 112.5 115.779C110.987 115.779 109.761 117.006 109.761 118.519C109.761 120.031 110.987 121.258 112.5 121.258Z" fill="black"/>
<path d="M190.247 91.9297C191.76 91.9297 192.987 90.7033 192.987 89.1904C192.987 87.6776 191.76 86.4512 190.247 86.4512C188.735 86.4512 187.508 87.6776 187.508 89.1904C187.508 90.7033 188.735 91.9297 190.247 91.9297Z" fill="black"/>
<path d="M34.7526 91.9297C36.2654 91.9297 37.4918 90.7033 37.4918 89.1904C37.4918 87.6776 36.2654 86.4512 34.7526 86.4512C33.2397 86.4512 32.0133 87.6776 32.0133 89.1904C32.0133 90.7033 33.2397 91.9297 34.7526 91.9297Z" fill="black"/>
<path d="M154.798 84.3066C156.311 84.3066 157.537 83.0802 157.537 81.5674C157.537 80.0545 156.311 78.8281 154.798 78.8281C153.285 78.8281 152.059 80.0545 152.059 81.5674C152.059 83.0802 153.285 84.3066 154.798 84.3066Z" fill="black"/>
<path d="M70.2022 84.3066C71.7151 84.3066 72.9415 83.0802 72.9415 81.5674C72.9415 80.0545 71.7151 78.8281 70.2022 78.8281C68.6894 78.8281 67.463 80.0545 67.463 81.5674C67.463 83.0802 68.6894 84.3066 70.2022 84.3066Z" fill="black"/>
<path d="M191.391 143.354H33.6094C29.0708 143.354 25.3916 147.034 25.3916 151.572C25.3916 156.111 29.0708 159.79 33.6094 159.79H191.391C195.929 159.79 199.608 156.111 199.608 151.572C199.608 147.034 195.929 143.354 191.391 143.354Z" fill="#FED030"/>
<path d="M191.391 143.354H185.912C188.092 143.354 190.182 144.22 191.723 145.761C193.264 147.303 194.13 149.393 194.13 151.572C194.13 153.752 193.264 155.842 191.723 157.383C190.182 158.924 188.092 159.79 185.912 159.79H191.391C193.57 159.79 195.66 158.924 197.201 157.383C198.743 155.842 199.608 153.752 199.608 151.572C199.608 149.393 198.743 147.303 197.201 145.761C195.66 144.22 193.57 143.354 191.391 143.354Z" fill="#F8BE32"/>
<path d="M35.5269 143.354C33.2454 130.669 30.9602 117.984 28.6714 105.301L21.7393 73.4121L46.4839 83.8213L46.4108 83.9528C45.3179 85.225 44.6129 86.7841 44.3796 88.445C44.1462 90.1059 44.3942 91.7989 45.0942 93.3231C45.7942 94.8472 46.9168 96.1386 48.3288 97.0438C49.7407 97.9491 51.3827 98.4303 53.0599 98.4303C54.7372 98.4303 56.3792 97.9491 57.7911 97.0438C59.203 96.1386 60.3256 94.8472 61.0256 93.3231C61.7256 91.7989 61.9737 90.1059 61.7403 88.445C61.5069 86.7841 60.8019 85.225 59.709 83.9528L59.6323 83.8213C61.2686 74.3982 62.906 64.974 64.5447 55.5485L81.1812 79.4385C80.6543 81.0418 80.4872 82.7414 80.6917 84.4166C81.4222 90.1252 86.3967 93.0836 86.9811 93.4196C89.1557 94.6499 91.6334 95.2415 94.1292 95.1265C96.625 95.0115 99.0378 94.1945 101.09 92.7695C106.835 88.7081 106.616 81.7248 106.569 80.9688C106.291 75.315 102.474 70.22 96.8424 67.9336L112.405 27.21H112.595L128.147 67.9336C122.515 70.22 118.698 75.315 118.42 80.9688C118.384 81.7248 118.165 88.7081 123.899 92.7695C125.952 94.194 128.365 95.0103 130.86 95.1246C133.356 95.239 135.834 94.6467 138.008 93.416C138.592 93.08 143.567 90.1289 144.297 84.413C144.502 82.7378 144.335 81.0381 143.808 79.4348L160.444 55.5448C162.081 64.9679 163.718 74.3922 165.357 83.8176L165.28 83.9491C164.187 85.2214 163.482 86.7804 163.249 88.4414C163.015 90.1023 163.263 91.7953 163.963 93.3194C164.663 94.8436 165.786 96.1349 167.198 97.0402C168.61 97.9455 170.252 98.4266 171.929 98.4266C173.606 98.4266 175.248 97.9455 176.66 97.0402C178.072 96.1349 179.195 94.8436 179.895 93.3194C180.595 91.7953 180.843 90.1023 180.609 88.4414C180.376 86.7804 179.671 85.2214 178.578 83.9491L178.505 83.8176L203.261 73.4121L196.321 105.319C194.035 118.005 191.75 130.689 189.466 143.373L35.5269 143.354Z" fill="#FED030"/>
<path d="M99.1617 69.0914C98.6424 68.2127 98.0368 67.3881 97.3538 66.6297C97.1858 67.0643 97.0214 67.5026 96.8534 67.9372C97.6513 68.2622 98.423 68.6481 99.1617 69.0914ZM159.889 78.3428L159.812 78.4743C158.878 79.5612 158.225 80.8606 157.91 82.2587C157.594 83.6568 157.626 85.1109 158.003 86.4936C158.381 87.8763 159.091 89.1455 160.072 90.19C161.054 91.2344 162.276 92.0223 163.633 92.4846C163.143 91.0417 163.037 89.4959 163.327 87.9997C163.616 86.5036 164.291 85.1087 165.284 83.9528L165.36 83.8213C163.722 74.3982 162.087 64.974 160.455 55.5485C159.25 57.2846 158.042 59.0182 156.832 60.7494L159.889 78.3428ZM122.668 62.4551C117.036 64.7414 113.22 69.8365 112.942 75.4903C112.905 76.2463 112.686 83.2296 118.42 87.291C118.923 87.6452 119.45 87.9626 119.998 88.2406C118.883 85.9827 118.338 83.4861 118.41 80.9688C118.687 75.315 122.504 70.22 128.136 67.9336L112.595 27.21H112.405L110.805 31.4102L122.668 62.4551Z" fill="#F8BE32"/>
<path d="M195.92 76.4877C194.23 84.2794 192.54 92.0577 190.85 99.8225L185.076 131.868C184.771 133.555 183.884 135.081 182.568 136.18C181.252 137.278 179.591 137.879 177.877 137.876H34.5407L35.5268 143.355H189.473L196.329 105.301L203.268 73.3942L195.92 76.4877ZM75.7026 73.9603C75.1758 75.5636 75.0087 77.2633 75.2132 78.9384C75.9437 84.6471 80.9182 87.6054 81.5025 87.9415C81.6267 88.0109 81.7509 88.073 81.8678 88.1387C81.2512 86.9797 80.8491 85.7189 80.6808 84.417C80.4762 82.7418 80.6433 81.0421 81.1702 79.4388L64.5447 55.5488L64.2124 57.459L75.7026 73.9603ZM38.8943 85.3702C39.1145 86.984 39.7799 88.5045 40.816 89.7612C41.8521 91.0179 43.2178 91.9611 44.76 92.485C44.2698 91.042 44.1642 89.4962 44.4537 88.0001C44.7432 86.5039 45.4178 85.109 46.4108 83.9531L46.4839 83.8216L39.4531 80.8669C38.8748 82.2929 38.6821 83.8461 38.8943 85.3702Z" fill="#F8BE32"/>
<path d="M112.5 130.206C119.056 130.206 124.37 124.892 124.37 118.336C124.37 111.78 119.056 106.466 112.5 106.466C105.944 106.466 100.63 111.78 100.63 118.336C100.63 124.892 105.944 130.206 112.5 130.206Z" fill="#EB304A"/>
<path d="M112.5 106.466C111.578 106.466 110.658 106.574 109.761 106.787C112.36 107.405 114.674 108.88 116.33 110.976C117.986 113.072 118.887 115.665 118.887 118.336C118.887 121.007 117.986 123.6 116.33 125.696C114.674 127.791 112.36 129.267 109.761 129.885C111.391 130.272 113.085 130.31 114.73 129.995C116.376 129.681 117.937 129.022 119.31 128.061C120.683 127.101 121.836 125.86 122.695 124.422C123.555 122.983 124.099 121.379 124.294 119.715C124.489 118.051 124.329 116.364 123.825 114.766C123.321 113.168 122.485 111.695 121.37 110.444C120.256 109.192 118.89 108.191 117.361 107.505C115.832 106.819 114.176 106.465 112.5 106.466Z" fill="#E4222E"/>
<path d="M174.955 123.814C177.981 123.814 180.434 121.362 180.434 118.336C180.434 115.31 177.981 112.857 174.955 112.857C171.929 112.857 169.477 115.31 169.477 118.336C169.477 121.362 171.929 123.814 174.955 123.814Z" fill="#EB304A"/>
<path d="M174.955 112.857C174.558 112.858 174.163 112.902 173.775 112.989C174.991 113.26 176.078 113.938 176.857 114.91C177.636 115.882 178.061 117.09 178.061 118.336C178.061 119.582 177.636 120.79 176.857 121.762C176.078 122.734 174.991 123.412 173.775 123.683C174.528 123.851 175.307 123.858 176.062 123.704C176.817 123.55 177.531 123.239 178.158 122.79C178.784 122.342 179.309 121.766 179.698 121.101C180.087 120.435 180.331 119.696 180.415 118.929C180.498 118.163 180.419 117.388 180.183 116.655C179.946 115.921 179.558 115.246 179.042 114.673C178.527 114.1 177.897 113.642 177.192 113.329C176.488 113.016 175.726 112.856 174.955 112.857Z" fill="#E4222E"/>
<path d="M50.0449 123.814C53.0706 123.814 55.5234 121.362 55.5234 118.336C55.5234 115.31 53.0706 112.857 50.0449 112.857C47.0192 112.857 44.5664 115.31 44.5664 118.336C44.5664 121.362 47.0192 123.814 50.0449 123.814Z" fill="#EB304A"/>
<path d="M79.6289 130.678L70.2022 118.336L79.6289 105.995L89.0556 118.336L79.6289 130.678Z" fill="#1CABE1"/>
<path d="M79.6289 105.995L76.8896 109.571L81.8861 116.108C82.3724 116.745 82.6359 117.524 82.6359 118.325C82.6359 119.127 82.3724 119.906 81.8861 120.542L76.8896 127.102L79.6289 130.689L89.0556 118.336L79.6289 105.995Z" fill="#199AD5"/>
<path d="M145.371 130.678L135.944 118.336L145.371 105.995L154.798 118.336L145.371 130.678Z" fill="#1CABE1"/>
<path d="M145.371 105.995L142.632 109.571L147.628 116.108C148.115 116.745 148.378 117.524 148.378 118.325C148.378 119.127 148.115 119.906 147.628 120.542L142.632 127.102L145.371 130.689L154.798 118.336L145.371 105.995Z" fill="#199AD5"/>
<path d="M112.5 65.0117C114.013 65.0117 115.239 63.7853 115.239 62.2725C115.239 60.7596 114.013 59.5332 112.5 59.5332C110.987 59.5332 109.761 60.7596 109.761 62.2725C109.761 63.7853 110.987 65.0117 112.5 65.0117Z" fill="#EB304A"/>
<path d="M112.5 121.258C114.013 121.258 115.239 120.031 115.239 118.519C115.239 117.006 114.013 115.779 112.5 115.779C110.987 115.779 109.761 117.006 109.761 118.519C109.761 120.031 110.987 121.258 112.5 121.258Z" fill="white"/>
<path d="M190.247 91.9297C191.76 91.9297 192.987 90.7033 192.987 89.1904C192.987 87.6776 191.76 86.4512 190.247 86.4512C188.735 86.4512 187.508 87.6776 187.508 89.1904C187.508 90.7033 188.735 91.9297 190.247 91.9297Z" fill="#EB304A"/>
<path d="M34.7526 91.9297C36.2654 91.9297 37.4918 90.7033 37.4918 89.1904C37.4918 87.6776 36.2654 86.4512 34.7526 86.4512C33.2397 86.4512 32.0133 87.6776 32.0133 89.1904C32.0133 90.7033 33.2397 91.9297 34.7526 91.9297Z" fill="#EB304A"/>
<path d="M154.798 84.3066C156.311 84.3066 157.537 83.0802 157.537 81.5674C157.537 80.0545 156.311 78.8281 154.798 78.8281C153.285 78.8281 152.059 80.0545 152.059 81.5674C152.059 83.0802 153.285 84.3066 154.798 84.3066Z" fill="#1CABE1"/>
<path d="M70.2022 84.3066C71.7151 84.3066 72.9415 83.0802 72.9415 81.5674C72.9415 80.0545 71.7151 78.8281 70.2022 78.8281C68.6894 78.8281 67.463 80.0545 67.463 81.5674C67.463 83.0802 68.6894 84.3066 70.2022 84.3066Z" fill="#1CABE1"/>
<path d="M50.0449 112.857C49.6481 112.858 49.2525 112.902 48.8652 112.989C50.081 113.26 51.168 113.938 51.9471 114.91C52.7261 115.882 53.1507 117.09 53.1507 118.336C53.1507 119.582 52.7261 120.79 51.9471 121.762C51.168 122.734 50.081 123.412 48.8652 123.683C49.6173 123.851 50.3964 123.858 51.1516 123.704C51.9067 123.55 52.6209 123.239 53.2475 122.79C53.8741 122.342 54.399 121.766 54.7879 121.101C55.1768 120.435 55.421 119.696 55.5045 118.929C55.588 118.163 55.5089 117.388 55.2724 116.655C55.0359 115.921 54.6473 115.246 54.1321 114.673C53.6168 114.1 52.9865 113.642 52.2822 113.329C51.5779 113.016 50.8155 112.856 50.0449 112.857Z" fill="#E4222E"/>
<path d="M21.8408 196.793C21.8213 196.891 21.8115 196.998 21.8115 197.115C21.8115 197.213 21.8018 197.311 21.7822 197.408C21.626 197.545 21.4893 197.633 21.3721 197.672C21.2744 197.711 21.1865 197.809 21.1084 197.965C21.0498 198.062 21.0205 198.17 21.0205 198.287C21.0205 198.404 20.9912 198.512 20.9326 198.609C20.874 198.746 20.7275 198.893 20.4932 199.049C20.2783 199.186 20.1221 199.273 20.0244 199.312C19.9072 199.371 19.7803 199.42 19.6436 199.459C19.5264 199.498 19.4092 199.547 19.292 199.605C19.1162 199.684 18.9697 199.742 18.8525 199.781C18.7549 199.82 18.6475 199.85 18.5303 199.869C18.4131 199.869 18.2861 199.879 18.1494 199.898C18.0127 199.898 17.8369 199.918 17.6221 199.957C17.5635 199.957 17.5244 199.977 17.5049 200.016C17.4854 200.035 17.4463 200.064 17.3877 200.104C17.3291 200.143 17.2412 200.182 17.124 200.221C17.0068 200.24 16.8311 200.26 16.5967 200.279C16.3818 200.299 16.2158 200.318 16.0986 200.338C16.001 200.338 15.835 200.357 15.6006 200.396C15.4639 200.436 15.3369 200.494 15.2197 200.572C15.1025 200.65 14.9756 200.719 14.8389 200.777C14.5654 200.934 14.3604 201.09 14.2236 201.246C14.1064 201.383 14.0088 201.51 13.9307 201.627C13.8135 201.822 13.7549 202.047 13.7549 202.301C13.7744 202.535 13.7354 202.789 13.6377 203.062C13.5596 203.258 13.4326 203.453 13.2568 203.648C13.0811 203.844 12.9541 204.049 12.876 204.264C12.8564 204.361 12.8564 204.469 12.876 204.586C12.8955 204.703 12.8955 204.83 12.876 204.967C12.8369 205.221 12.749 205.484 12.6123 205.758C12.4756 206.012 12.3584 206.285 12.2607 206.578C12.2217 206.734 12.2021 206.891 12.2021 207.047C12.2217 207.203 12.2119 207.359 12.1729 207.516C12.1143 207.887 12.0264 208.287 11.9092 208.717C11.792 209.127 11.6846 209.537 11.5869 209.947C11.5479 210.182 11.5283 210.426 11.5283 210.68C11.5479 210.914 11.5283 211.119 11.4697 211.295C11.4307 211.471 11.3525 211.637 11.2354 211.793C11.1377 211.949 11.04 212.115 10.9424 212.291C10.8643 212.447 10.8057 212.623 10.7666 212.818C10.7471 212.994 10.7959 213.189 10.9131 213.404C10.8545 214.127 10.7568 214.859 10.6201 215.602C10.4834 216.344 10.3076 217.057 10.0928 217.74C10.0342 217.955 9.93652 218.238 9.7998 218.59C9.68262 218.941 9.56543 219.166 9.44824 219.264C9.33105 219.361 9.1748 219.42 8.97949 219.439C8.80371 219.479 8.61816 219.479 8.42285 219.439C8.24707 219.4 8.08105 219.332 7.9248 219.234C7.76855 219.137 7.66113 219.02 7.60254 218.883C7.48535 218.961 7.37793 219.068 7.28027 219.205C7.20215 219.342 7.08496 219.449 6.92871 219.527C6.7334 219.625 6.52832 219.664 6.31348 219.645C6.11816 219.625 5.91309 219.664 5.69824 219.762C5.50293 219.84 5.32715 219.928 5.1709 220.025C5.01465 220.143 4.8584 220.221 4.70215 220.26C4.60449 220.299 4.50684 220.309 4.40918 220.289C4.33105 220.289 4.25293 220.309 4.1748 220.348C4.05762 220.406 3.96973 220.504 3.91113 220.641C3.85254 220.777 3.76465 220.885 3.64746 220.963C3.49121 220.924 3.31543 220.895 3.12012 220.875C2.9248 220.875 2.77832 220.826 2.68066 220.729C2.6416 220.221 2.71973 219.771 2.91504 219.381C3.11035 219.01 3.25684 218.639 3.35449 218.268C3.43262 218.053 3.48145 217.848 3.50098 217.652C3.54004 217.457 3.5791 217.232 3.61816 216.979C3.69629 216.705 3.79395 216.422 3.91113 216.129C4.02832 215.816 4.11621 215.504 4.1748 215.191C4.2334 214.977 4.2627 214.762 4.2627 214.547C4.28223 214.312 4.33105 214.088 4.40918 213.873C4.44824 213.717 4.5459 213.551 4.70215 213.375C4.8584 213.18 4.97559 212.975 5.05371 212.76C5.13184 212.545 5.2002 212.301 5.25879 212.027C5.31738 211.754 5.39551 211.49 5.49316 211.236C5.59082 210.904 5.72754 210.621 5.90332 210.387C6.09863 210.152 6.18652 209.889 6.16699 209.596C6.16699 209.459 6.1377 209.352 6.0791 209.273C6.02051 209.195 5.99121 209.107 5.99121 209.01C5.97168 208.854 5.99121 208.639 6.0498 208.365C6.1084 208.092 6.16699 207.848 6.22559 207.633C6.32324 207.223 6.4209 206.852 6.51855 206.52C6.61621 206.188 6.71387 205.855 6.81152 205.523C6.85059 205.367 6.87988 205.221 6.89941 205.084C6.93848 204.928 6.97754 204.791 7.0166 204.674C7.05566 204.518 7.11426 204.391 7.19238 204.293C7.29004 204.176 7.3584 204.059 7.39746 203.941C7.43652 203.805 7.46582 203.639 7.48535 203.443C7.52441 203.248 7.57324 203.062 7.63184 202.887C7.69043 202.75 7.74902 202.623 7.80762 202.506C7.88574 202.389 7.93457 202.271 7.9541 202.154C7.99316 201.9 7.9541 201.666 7.83691 201.451C7.73926 201.236 7.69043 201.012 7.69043 200.777C7.47559 200.621 7.22168 200.533 6.92871 200.514C6.63574 200.475 6.35254 200.465 6.0791 200.484C5.80566 200.504 5.56152 200.523 5.34668 200.543C5.13184 200.543 4.8877 200.553 4.61426 200.572C4.16504 200.592 3.77441 200.631 3.44238 200.689C3.11035 200.748 2.78809 200.807 2.47559 200.865C2.18262 200.924 1.87988 200.973 1.56738 201.012C1.25488 201.031 0.90332 201.031 0.512695 201.012C0.551758 200.797 0.581055 200.572 0.600586 200.338C0.600586 200.084 0.629883 199.879 0.688477 199.723C0.805664 199.625 0.922852 199.576 1.04004 199.576C1.15723 199.557 1.28418 199.537 1.4209 199.518C1.34277 199.4 1.30371 199.293 1.30371 199.195C1.32324 199.098 1.34277 199.01 1.3623 198.932C1.40137 198.834 1.44043 198.746 1.47949 198.668C1.53809 198.57 1.57715 198.482 1.59668 198.404C1.63574 198.209 1.64551 198.014 1.62598 197.818C1.62598 197.623 1.71387 197.467 1.88965 197.35C2.16309 197.33 2.40723 197.33 2.62207 197.35C2.83691 197.369 3.04199 197.398 3.2373 197.438C3.43262 197.457 3.62793 197.477 3.82324 197.496C4.03809 197.516 4.28223 197.516 4.55566 197.496C5.18066 197.457 5.68848 197.408 6.0791 197.35C6.48926 197.291 6.9873 197.252 7.57324 197.232C7.9834 197.232 8.37402 197.242 8.74512 197.262C9.13574 197.262 9.49707 197.281 9.8291 197.32C10.1807 197.379 10.4346 197.408 10.5908 197.408C10.7666 197.408 10.9229 197.408 11.0596 197.408C11.1963 197.389 11.3428 197.369 11.499 197.35C11.6553 197.33 11.8896 197.32 12.2021 197.32C12.5342 197.32 12.8467 197.301 13.1396 197.262C13.4521 197.203 13.7744 197.184 14.1064 197.203C14.4775 197.203 14.7314 197.232 14.8682 197.291C15.0244 197.33 15.1514 197.369 15.249 197.408C15.3467 197.447 15.4541 197.486 15.5713 197.525C15.6885 197.545 15.9033 197.535 16.2158 197.496C16.4307 197.457 16.5674 197.418 16.626 197.379C16.6846 197.32 16.8213 197.271 17.0361 197.232C17.2314 197.213 17.4268 197.213 17.6221 197.232C17.8174 197.232 18.0225 197.223 18.2373 197.203C18.8232 197.145 19.4092 197.047 19.9951 196.91C20.6006 196.754 21.2158 196.715 21.8408 196.793ZM32.0361 205.318C31.5088 205.572 30.9814 205.699 30.4541 205.699C29.9268 205.699 29.3408 205.68 28.6963 205.641C28.5205 205.641 28.3252 205.65 28.1104 205.67C27.915 205.689 27.7295 205.709 27.5537 205.729C26.6357 205.826 25.8643 206.178 25.2393 206.783C24.6143 207.369 24.1553 208.111 23.8623 209.01C23.7646 209.342 23.6865 209.645 23.6279 209.918C23.5693 210.191 23.6963 210.348 24.0088 210.387C24.2041 210.426 24.3994 210.426 24.5947 210.387C24.79 210.348 24.9854 210.299 25.1807 210.24C25.3955 210.162 25.6006 210.094 25.7959 210.035C25.9912 209.977 26.1865 209.947 26.3818 209.947C26.46 209.947 26.5283 209.967 26.5869 210.006C26.665 210.045 26.7432 210.064 26.8213 210.064C27.1533 210.104 27.5049 210.084 27.876 210.006C28.2471 209.908 28.5889 209.898 28.9014 209.977C28.96 209.996 29.0088 210.035 29.0479 210.094C29.1064 210.133 29.1846 210.172 29.2822 210.211C29.5361 210.309 29.8389 210.377 30.1904 210.416C30.542 210.436 30.8252 210.494 31.04 210.592C31.1377 210.631 31.2354 210.709 31.333 210.826C31.4307 210.924 31.4795 210.992 31.4795 211.031C31.4795 211.246 31.3525 211.383 31.0986 211.441C30.8447 211.5 30.6299 211.539 30.4541 211.559C30.2979 211.578 30.1416 211.578 29.9854 211.559C29.8291 211.539 29.6729 211.549 29.5166 211.588C29.2432 211.627 28.9795 211.686 28.7256 211.764C28.4717 211.822 28.1982 211.9 27.9053 211.998C27.5732 212.115 27.2607 212.262 26.9678 212.438C26.6748 212.594 26.3525 212.691 26.001 212.73C25.7471 212.77 25.5029 212.77 25.2686 212.73C25.0342 212.691 24.7803 212.691 24.5068 212.73C24.4092 212.75 24.3115 212.779 24.2139 212.818C24.1357 212.857 24.0479 212.887 23.9502 212.906C23.7744 212.945 23.6377 212.975 23.54 212.994C23.4619 212.994 23.3936 213.014 23.335 213.053C23.2959 213.092 23.2471 213.15 23.1885 213.229C23.1494 213.307 23.0811 213.424 22.9834 213.58C22.8271 213.932 22.7295 214.312 22.6904 214.723C22.6514 215.113 22.6123 215.533 22.5732 215.982C22.7881 216.197 22.9932 216.373 23.1885 216.51C23.3838 216.627 23.6865 216.686 24.0967 216.686C24.3115 216.686 24.4775 216.666 24.5947 216.627C24.7314 216.568 24.9072 216.529 25.1221 216.51C25.3369 216.51 25.5518 216.529 25.7666 216.568C25.9814 216.588 26.2256 216.588 26.499 216.568C27.0654 216.529 27.5439 216.461 27.9346 216.363C28.3252 216.246 28.8037 216.207 29.3701 216.246C29.4873 216.246 29.6924 216.256 29.9854 216.275C30.2979 216.295 30.6104 216.324 30.9229 216.363C31.2354 216.383 31.5088 216.422 31.7432 216.48C31.9971 216.539 32.124 216.617 32.124 216.715C32.124 216.832 32.0459 216.959 31.8896 217.096C31.7529 217.213 31.5869 217.33 31.3916 217.447C31.2158 217.545 31.0303 217.633 30.835 217.711C30.6592 217.77 30.542 217.809 30.4834 217.828C30.1514 217.926 29.8291 217.955 29.5166 217.916C29.2041 217.857 28.8623 217.848 28.4912 217.887C28.2178 217.926 27.9736 217.984 27.7588 218.062C27.5439 218.141 27.3291 218.229 27.1143 218.326C26.8994 218.404 26.6748 218.492 26.4404 218.59C26.2256 218.668 25.9717 218.717 25.6787 218.736C25.2881 218.775 24.9561 218.824 24.6826 218.883C24.4092 218.922 24.0869 218.98 23.7158 219.059C23.5596 219.098 23.4131 219.137 23.2764 219.176C23.1396 219.234 22.9932 219.283 22.8369 219.322C22.2705 219.439 21.6553 219.459 20.9912 219.381C20.3467 219.322 19.6436 219.332 18.8818 219.41C18.3936 219.469 17.9541 219.537 17.5635 219.615C17.1924 219.713 16.8115 219.742 16.4209 219.703C16.2842 219.684 16.1572 219.664 16.04 219.645C15.9033 219.645 15.7861 219.596 15.6885 219.498C15.7275 219.342 15.8154 219.205 15.9521 219.088C16.0889 218.971 16.2256 218.863 16.3623 218.766C16.499 218.648 16.626 218.531 16.7432 218.414C16.8799 218.277 17.0068 218.15 17.124 218.033C17.2412 217.877 17.3389 217.691 17.417 217.477C17.4951 217.242 17.5635 217.008 17.6221 216.773C17.7002 216.539 17.7783 216.324 17.8564 216.129C17.9541 215.914 18.0713 215.729 18.208 215.572C18.0518 215.221 18.0518 214.82 18.208 214.371C18.3838 213.922 18.54 213.453 18.6768 212.965C18.7158 212.848 18.7354 212.73 18.7354 212.613C18.7354 212.496 18.7549 212.389 18.7939 212.291C18.833 212.096 18.9209 211.93 19.0576 211.793C19.1943 211.637 19.2822 211.48 19.3213 211.324C19.3408 211.227 19.3408 211.129 19.3213 211.031C19.3213 210.934 19.3311 210.836 19.3506 210.738C19.3896 210.445 19.458 210.172 19.5557 209.918C19.6729 209.645 19.751 209.4 19.79 209.186C19.8291 209.029 19.8291 208.873 19.79 208.717C19.7705 208.541 19.7705 208.375 19.79 208.219C19.8291 207.828 19.9072 207.457 20.0244 207.105C20.1611 206.754 20.2393 206.441 20.2588 206.168C20.2783 205.953 20.249 205.719 20.1709 205.465C20.0928 205.211 20.0146 205.016 19.9365 204.879C19.8779 204.781 19.79 204.684 19.6729 204.586C19.5557 204.469 19.4385 204.361 19.3213 204.264C19.2041 204.166 19.0967 204.078 18.999 204C18.9209 203.902 18.8818 203.814 18.8818 203.736C18.9014 203.521 18.9893 203.414 19.1455 203.414C19.3018 203.395 19.4482 203.326 19.585 203.209C20.2881 203.229 20.9521 203.307 21.5771 203.443C22.2217 203.58 22.8857 203.668 23.5693 203.707C23.8232 203.746 24.0869 203.746 24.3604 203.707C24.6338 203.648 24.8975 203.609 25.1514 203.59C25.5615 203.57 26.0205 203.629 26.5283 203.766C27.0557 203.902 27.5732 203.951 28.0811 203.912C28.7646 203.873 29.4092 203.854 30.0146 203.854C30.6201 203.854 31.2549 203.834 31.9189 203.795C32.0361 203.893 32.2119 203.941 32.4463 203.941C32.6807 203.922 32.915 203.902 33.1494 203.883C33.4033 203.844 33.6279 203.834 33.8232 203.854C34.0381 203.873 34.1846 203.961 34.2627 204.117C34.3799 204.391 34.3604 204.625 34.2041 204.82C34.0479 205.016 33.833 205.143 33.5596 205.201C33.4814 205.201 33.374 205.211 33.2373 205.23C33.1006 205.25 32.9541 205.27 32.7979 205.289C32.6416 205.309 32.4854 205.318 32.3291 205.318C32.1924 205.318 32.0947 205.318 32.0361 205.318ZM48.8818 205.318C48.3545 205.572 47.8271 205.699 47.2998 205.699C46.7725 205.699 46.1865 205.68 45.542 205.641C45.3662 205.641 45.1709 205.65 44.9561 205.67C44.7607 205.689 44.5752 205.709 44.3994 205.729C43.4814 205.826 42.71 206.178 42.085 206.783C41.46 207.369 41.001 208.111 40.708 209.01C40.6104 209.342 40.5322 209.645 40.4736 209.918C40.415 210.191 40.542 210.348 40.8545 210.387C41.0498 210.426 41.2451 210.426 41.4404 210.387C41.6357 210.348 41.8311 210.299 42.0264 210.24C42.2412 210.162 42.4463 210.094 42.6416 210.035C42.8369 209.977 43.0322 209.947 43.2275 209.947C43.3057 209.947 43.374 209.967 43.4326 210.006C43.5107 210.045 43.5889 210.064 43.667 210.064C43.999 210.104 44.3506 210.084 44.7217 210.006C45.0928 209.908 45.4346 209.898 45.7471 209.977C45.8057 209.996 45.8545 210.035 45.8936 210.094C45.9521 210.133 46.0303 210.172 46.1279 210.211C46.3818 210.309 46.6846 210.377 47.0361 210.416C47.3877 210.436 47.6709 210.494 47.8857 210.592C47.9834 210.631 48.0811 210.709 48.1787 210.826C48.2764 210.924 48.3252 210.992 48.3252 211.031C48.3252 211.246 48.1982 211.383 47.9443 211.441C47.6904 211.5 47.4756 211.539 47.2998 211.559C47.1436 211.578 46.9873 211.578 46.8311 211.559C46.6748 211.539 46.5186 211.549 46.3623 211.588C46.0889 211.627 45.8252 211.686 45.5713 211.764C45.3174 211.822 45.0439 211.9 44.751 211.998C44.4189 212.115 44.1064 212.262 43.8135 212.438C43.5205 212.594 43.1982 212.691 42.8467 212.73C42.5928 212.77 42.3486 212.77 42.1143 212.73C41.8799 212.691 41.626 212.691 41.3525 212.73C41.2549 212.75 41.1572 212.779 41.0596 212.818C40.9814 212.857 40.8936 212.887 40.7959 212.906C40.6201 212.945 40.4834 212.975 40.3857 212.994C40.3076 212.994 40.2393 213.014 40.1807 213.053C40.1416 213.092 40.0928 213.15 40.0342 213.229C39.9951 213.307 39.9268 213.424 39.8291 213.58C39.6729 213.932 39.5752 214.312 39.5361 214.723C39.4971 215.113 39.458 215.533 39.4189 215.982C39.6338 216.197 39.8389 216.373 40.0342 216.51C40.2295 216.627 40.5322 216.686 40.9424 216.686C41.1572 216.686 41.3232 216.666 41.4404 216.627C41.5771 216.568 41.7529 216.529 41.9678 216.51C42.1826 216.51 42.3975 216.529 42.6123 216.568C42.8271 216.588 43.0713 216.588 43.3447 216.568C43.9111 216.529 44.3896 216.461 44.7803 216.363C45.1709 216.246 45.6494 216.207 46.2158 216.246C46.333 216.246 46.5381 216.256 46.8311 216.275C47.1436 216.295 47.4561 216.324 47.7686 216.363C48.0811 216.383 48.3545 216.422 48.5889 216.48C48.8428 216.539 48.9697 216.617 48.9697 216.715C48.9697 216.832 48.8916 216.959 48.7354 217.096C48.5986 217.213 48.4326 217.33 48.2373 217.447C48.0615 217.545 47.876 217.633 47.6807 217.711C47.5049 217.77 47.3877 217.809 47.3291 217.828C46.9971 217.926 46.6748 217.955 46.3623 217.916C46.0498 217.857 45.708 217.848 45.3369 217.887C45.0635 217.926 44.8193 217.984 44.6045 218.062C44.3896 218.141 44.1748 218.229 43.96 218.326C43.7451 218.404 43.5205 218.492 43.2861 218.59C43.0713 218.668 42.8174 218.717 42.5244 218.736C42.1338 218.775 41.8018 218.824 41.5283 218.883C41.2549 218.922 40.9326 218.98 40.5615 219.059C40.4053 219.098 40.2588 219.137 40.1221 219.176C39.9854 219.234 39.8389 219.283 39.6826 219.322C39.1162 219.439 38.501 219.459 37.8369 219.381C37.1924 219.322 36.4893 219.332 35.7275 219.41C35.2393 219.469 34.7998 219.537 34.4092 219.615C34.0381 219.713 33.6572 219.742 33.2666 219.703C33.1299 219.684 33.0029 219.664 32.8857 219.645C32.749 219.645 32.6318 219.596 32.5342 219.498C32.5732 219.342 32.6611 219.205 32.7979 219.088C32.9346 218.971 33.0713 218.863 33.208 218.766C33.3447 218.648 33.4717 218.531 33.5889 218.414C33.7256 218.277 33.8525 218.15 33.9697 218.033C34.0869 217.877 34.1846 217.691 34.2627 217.477C34.3408 217.242 34.4092 217.008 34.4678 216.773C34.5459 216.539 34.624 216.324 34.7021 216.129C34.7998 215.914 34.917 215.729 35.0537 215.572C34.8975 215.221 34.8975 214.82 35.0537 214.371C35.2295 213.922 35.3857 213.453 35.5225 212.965C35.5615 212.848 35.5811 212.73 35.5811 212.613C35.5811 212.496 35.6006 212.389 35.6396 212.291C35.6787 212.096 35.7666 211.93 35.9033 211.793C36.04 211.637 36.1279 211.48 36.167 211.324C36.1865 211.227 36.1865 211.129 36.167 211.031C36.167 210.934 36.1768 210.836 36.1963 210.738C36.2354 210.445 36.3037 210.172 36.4014 209.918C36.5186 209.645 36.5967 209.4 36.6357 209.186C36.6748 209.029 36.6748 208.873 36.6357 208.717C36.6162 208.541 36.6162 208.375 36.6357 208.219C36.6748 207.828 36.7529 207.457 36.8701 207.105C37.0068 206.754 37.085 206.441 37.1045 206.168C37.124 205.953 37.0947 205.719 37.0166 205.465C36.9385 205.211 36.8604 205.016 36.7822 204.879C36.7236 204.781 36.6357 204.684 36.5186 204.586C36.4014 204.469 36.2842 204.361 36.167 204.264C36.0498 204.166 35.9424 204.078 35.8447 204C35.7666 203.902 35.7275 203.814 35.7275 203.736C35.7471 203.521 35.835 203.414 35.9912 203.414C36.1475 203.395 36.2939 203.326 36.4307 203.209C37.1338 203.229 37.7979 203.307 38.4229 203.443C39.0674 203.58 39.7314 203.668 40.415 203.707C40.6689 203.746 40.9326 203.746 41.2061 203.707C41.4795 203.648 41.7432 203.609 41.9971 203.59C42.4072 203.57 42.8662 203.629 43.374 203.766C43.9014 203.902 44.4189 203.951 44.9268 203.912C45.6104 203.873 46.2549 203.854 46.8604 203.854C47.4658 203.854 48.1006 203.834 48.7646 203.795C48.8818 203.893 49.0576 203.941 49.292 203.941C49.5264 203.922 49.7607 203.902 49.9951 203.883C50.249 203.844 50.4736 203.834 50.6689 203.854C50.8838 203.873 51.0303 203.961 51.1084 204.117C51.2256 204.391 51.2061 204.625 51.0498 204.82C50.8936 205.016 50.6787 205.143 50.4053 205.201C50.3271 205.201 50.2197 205.211 50.083 205.23C49.9463 205.25 49.7998 205.27 49.6436 205.289C49.4873 205.309 49.3311 205.318 49.1748 205.318C49.0381 205.318 48.9404 205.318 48.8818 205.318ZM51.8408 218.473C51.4307 218.609 51.0693 218.561 50.7568 218.326C50.4443 218.072 50.249 217.779 50.1709 217.447C50.1318 217.291 50.1318 217.057 50.1709 216.744C50.21 216.412 50.2686 216.148 50.3467 215.953C50.4248 215.738 50.5908 215.484 50.8447 215.191C51.0986 214.898 51.2939 214.566 51.4307 214.195C51.5674 213.844 51.6748 213.512 51.7529 213.199C51.8506 212.867 51.9873 212.604 52.1631 212.408C52.2998 212.271 52.4463 212.154 52.6025 212.057C52.7588 211.939 52.8467 211.793 52.8662 211.617C52.8662 211.461 52.8174 211.324 52.7197 211.207C52.6416 211.09 52.6123 210.934 52.6318 210.738C52.6318 210.562 52.6807 210.338 52.7783 210.064C52.8955 209.791 53.0029 209.547 53.1006 209.332C53.3154 208.863 53.4814 208.385 53.5986 207.896C53.6377 207.76 53.667 207.604 53.6865 207.428C53.7256 207.232 53.7646 207.086 53.8037 206.988C53.8623 206.91 53.9209 206.783 53.9795 206.607C54.0576 206.432 54.1455 206.256 54.2432 206.08C54.3408 205.904 54.4482 205.748 54.5654 205.611C54.6826 205.455 54.8096 205.348 54.9463 205.289C55.1025 205.23 55.2686 205.191 55.4443 205.172C55.6396 205.133 55.8154 205.074 55.9717 204.996C56.1475 204.938 56.2549 204.869 56.2939 204.791C56.333 204.713 56.4307 204.635 56.5869 204.557C56.7041 204.518 56.8213 204.498 56.9385 204.498C57.0752 204.498 57.2119 204.479 57.3486 204.439C57.5049 204.381 57.6709 204.293 57.8467 204.176C58.0225 204.059 58.2275 204.068 58.4619 204.205C58.5596 204.264 58.6572 204.439 58.7549 204.732C58.8525 205.025 58.9502 205.299 59.0479 205.553C59.0869 205.689 59.1357 205.855 59.1943 206.051C59.2725 206.246 59.3408 206.451 59.3994 206.666C59.458 206.861 59.5166 207.047 59.5752 207.223C59.6338 207.379 59.6826 207.496 59.7217 207.574C59.8193 207.77 59.8877 207.975 59.9268 208.189C59.9658 208.404 60.0244 208.6 60.1025 208.775C60.2002 208.971 60.2979 209.156 60.3955 209.332C60.4932 209.508 60.5908 209.703 60.6885 209.918C60.7861 210.133 60.874 210.338 60.9521 210.533C61.0303 210.729 61.1279 210.934 61.2451 211.148C61.3232 211.305 61.4404 211.451 61.5967 211.588C61.7529 211.705 61.8506 211.842 61.8896 211.998C61.9482 212.154 61.9482 212.33 61.8896 212.525C61.8311 212.701 61.8213 212.867 61.8604 213.023C61.9189 213.238 62.0459 213.414 62.2412 213.551C62.4365 213.688 62.6123 213.834 62.7686 213.99C62.8662 214.107 62.9248 214.225 62.9443 214.342C62.9639 214.459 63.0518 214.537 63.208 214.576C63.2471 214.205 63.2861 213.883 63.3252 213.609C63.3838 213.336 63.4424 213.072 63.501 212.818C63.5596 212.545 63.6182 212.271 63.6768 211.998C63.7354 211.705 63.7842 211.383 63.8232 211.031C64.0186 210.777 64.1943 210.543 64.3506 210.328C64.5068 210.094 64.5752 209.791 64.5557 209.42C64.5361 209.303 64.4971 209.186 64.4385 209.068C64.3994 208.951 64.3896 208.824 64.4092 208.688C64.4287 208.492 64.4678 208.316 64.5264 208.16C64.585 208.004 64.6631 207.809 64.7607 207.574C64.8193 207.418 64.8682 207.262 64.9072 207.105C64.9463 206.93 64.9951 206.744 65.0537 206.549C65.1123 206.393 65.1611 206.266 65.2002 206.168C65.2588 206.07 65.3174 205.982 65.376 205.904C65.4346 205.807 65.4834 205.709 65.5225 205.611C65.5615 205.494 65.6006 205.328 65.6396 205.113C65.6982 204.781 65.7275 204.498 65.7275 204.264C65.7275 204.029 65.7764 203.795 65.874 203.561C66.0303 203.209 66.2744 202.916 66.6064 202.682C66.958 202.428 67.29 202.223 67.6025 202.066C68.1494 202.086 68.5986 202.232 68.9502 202.506C69.3018 202.76 69.5264 203.072 69.624 203.443C69.7607 203.795 69.751 204.088 69.5947 204.322C69.4385 204.537 69.2822 204.781 69.126 205.055C69.0283 205.23 68.9502 205.396 68.8916 205.553C68.8525 205.709 68.8135 205.865 68.7744 206.021C68.7549 206.158 68.7256 206.305 68.6865 206.461C68.667 206.617 68.6182 206.793 68.54 206.988C68.4814 207.184 68.3936 207.35 68.2764 207.486C68.1592 207.604 68.0811 207.73 68.042 207.867C68.1006 208.141 68.1201 208.365 68.1006 208.541C68.1006 208.717 68.0713 208.883 68.0127 209.039C67.9736 209.176 67.9248 209.322 67.8662 209.479C67.8271 209.615 67.7881 209.771 67.749 209.947C67.71 210.084 67.6904 210.221 67.6904 210.357C67.6904 210.494 67.6709 210.621 67.6318 210.738C67.5732 210.973 67.4951 211.188 67.3975 211.383C67.2998 211.578 67.2021 211.764 67.1045 211.939C66.9678 212.232 66.8115 212.506 66.6357 212.76C66.4795 213.014 66.3818 213.355 66.3428 213.785C66.3232 214.059 66.3037 214.303 66.2842 214.518C66.2842 214.713 66.2744 214.898 66.2549 215.074C66.2549 215.25 66.2256 215.436 66.167 215.631C66.1279 215.826 66.0693 216.061 65.9912 216.334C65.9521 216.49 65.8936 216.646 65.8154 216.803C65.7568 216.939 65.708 217.086 65.6689 217.242C65.5518 217.75 65.3857 218.141 65.1709 218.414C64.9561 218.668 64.6338 218.932 64.2041 219.205C63.9697 219.264 63.7354 219.322 63.501 219.381C63.2666 219.439 63.0322 219.469 62.7979 219.469C62.583 219.469 62.3779 219.43 62.1826 219.352C61.9873 219.293 61.8213 219.156 61.6846 218.941C61.5869 218.785 61.4795 218.561 61.3623 218.268C61.2646 217.955 61.1475 217.652 61.0107 217.359C60.9521 217.223 60.8838 217.096 60.8057 216.979C60.7471 216.842 60.6982 216.705 60.6592 216.568C60.5615 216.354 60.4932 216.168 60.4541 216.012C60.4346 215.855 60.376 215.641 60.2783 215.367C60.1416 214.938 59.9268 214.615 59.6338 214.4C59.3408 214.186 59.0869 213.951 58.8721 213.697C58.8525 213.502 58.8232 213.326 58.7842 213.17C58.7451 213.014 58.6572 212.887 58.5205 212.789C58.4814 212.75 58.4326 212.73 58.374 212.73C58.3154 212.711 58.2666 212.672 58.2275 212.613C58.1689 212.535 58.1299 212.447 58.1104 212.35C58.0908 212.232 58.0518 212.145 57.9932 212.086C57.9541 212.047 57.8955 211.959 57.8174 211.822C57.7393 211.686 57.6611 211.549 57.583 211.412C57.5244 211.275 57.4561 211.158 57.3779 211.061C57.2998 210.943 57.2412 210.895 57.2021 210.914C57.1045 210.914 57.0068 210.992 56.9092 211.148C56.8311 211.305 56.7432 211.48 56.6455 211.676C56.5674 211.871 56.4893 212.066 56.4111 212.262C56.333 212.438 56.2646 212.564 56.2061 212.643C56.1084 212.779 56.0303 212.984 55.9717 213.258C55.9326 213.512 55.874 213.717 55.7959 213.873C55.6592 214.107 55.5322 214.342 55.415 214.576C55.3174 214.811 55.3467 215.064 55.5029 215.338C55.5029 215.475 55.4639 215.592 55.3857 215.689C55.3271 215.768 55.3174 215.904 55.3564 216.1C55.2393 216.314 55.1221 216.559 55.0049 216.832C54.9072 217.105 54.7998 217.408 54.6826 217.74C54.624 217.936 54.5752 218.141 54.5361 218.355C54.4971 218.551 54.4482 218.746 54.3896 218.941C54.3311 219.117 54.2432 219.273 54.126 219.41C54.0283 219.547 53.8916 219.625 53.7158 219.645C53.4814 219.684 53.2861 219.654 53.1299 219.557C52.9736 219.459 52.8271 219.342 52.6904 219.205C52.5537 219.088 52.417 218.961 52.2803 218.824C52.1436 218.668 51.9971 218.551 51.8408 218.473ZM82.4561 196.881C83.5498 197.232 84.6143 197.438 85.6494 197.496C86.7041 197.555 87.8369 197.564 89.0479 197.525C89.5752 197.525 90.0928 197.496 90.6006 197.438C91.1084 197.379 91.6162 197.34 92.124 197.32C92.6514 197.281 93.1689 197.271 93.6768 197.291C94.1846 197.311 94.6924 197.389 95.2002 197.525C95.3955 197.584 95.5811 197.662 95.7568 197.76C95.9521 197.838 96.1377 197.916 96.3135 197.994C96.7822 198.17 97.124 198.346 97.3389 198.521C97.5732 198.678 97.7979 198.961 98.0127 199.371C98.4033 199.566 98.7451 199.762 99.0381 199.957C99.3311 200.152 99.5752 200.367 99.7705 200.602C99.9854 200.836 100.161 201.109 100.298 201.422C100.435 201.715 100.562 202.066 100.679 202.477C100.796 202.945 100.835 203.424 100.796 203.912C100.757 204.381 100.669 204.84 100.532 205.289C100.396 205.719 100.229 206.129 100.034 206.52C99.8389 206.91 99.6436 207.252 99.4482 207.545C99.2334 207.818 99.0088 208.082 98.7744 208.336C98.5596 208.57 98.2959 208.805 97.9834 209.039C97.8662 209.137 97.7686 209.244 97.6904 209.361C97.6123 209.479 97.5244 209.576 97.4268 209.654C97.3096 209.732 97.1631 209.82 96.9873 209.918C96.8115 209.996 96.6455 210.074 96.4893 210.152C96.333 210.23 96.2256 210.318 96.167 210.416C96.1084 210.494 96.0205 210.553 95.9033 210.592C95.4736 210.748 95.0439 210.885 94.6143 211.002C94.1846 211.119 93.7549 211.256 93.3252 211.412C93.1689 211.451 93.0225 211.51 92.8857 211.588C92.749 211.646 92.6221 211.686 92.5049 211.705C92.3682 211.725 92.2412 211.715 92.124 211.676C92.0068 211.637 91.8604 211.617 91.6846 211.617C91.5088 211.637 91.3135 211.695 91.0986 211.793C90.9033 211.871 90.6787 211.92 90.4248 211.939C90.1123 211.959 89.7998 211.959 89.4873 211.939C89.1748 211.9 88.8428 211.9 88.4912 211.939C88.2178 211.959 87.9834 211.979 87.7881 211.998C87.5928 212.018 87.4268 212.066 87.29 212.145C87.1533 212.203 87.0264 212.301 86.9092 212.438C86.8115 212.555 86.7041 212.73 86.5869 212.965C86.5479 213.082 86.5088 213.219 86.4697 213.375C86.4307 213.512 86.3916 213.658 86.3525 213.814C86.2158 214.186 86.1084 214.566 86.0303 214.957C85.9521 215.328 85.9326 215.719 85.9717 216.129C85.9717 216.246 85.9619 216.363 85.9424 216.48C85.9424 216.578 85.9521 216.656 85.9717 216.715C86.0107 216.891 86.0791 217.047 86.1768 217.184C86.2939 217.32 86.4111 217.467 86.5283 217.623C86.6455 217.76 86.7432 217.906 86.8213 218.062C86.9189 218.219 86.9678 218.404 86.9678 218.619C86.6357 218.873 86.2061 218.99 85.6787 218.971C85.1709 218.932 84.6436 218.912 84.0967 218.912C83.6084 218.912 83.1787 218.902 82.8076 218.883C82.4365 218.844 82.0264 218.854 81.5771 218.912C81.3623 218.951 81.1475 219.01 80.9326 219.088C80.7373 219.186 80.5322 219.254 80.3174 219.293C80.1611 219.312 79.9951 219.303 79.8193 219.264C79.6631 219.244 79.4971 219.254 79.3213 219.293C79.0869 219.332 78.8623 219.381 78.6475 219.439C78.4326 219.518 78.2275 219.596 78.0322 219.674C77.8174 219.752 77.6025 219.811 77.3877 219.85C77.1729 219.908 76.9678 219.928 76.7725 219.908C76.6748 219.615 76.6943 219.371 76.8311 219.176C76.9678 219 77.1533 218.834 77.3877 218.678C77.6221 218.521 77.8662 218.375 78.1201 218.238C78.3545 218.102 78.5205 217.936 78.6182 217.74C78.7549 217.389 78.9209 217.057 79.1162 216.744C79.3115 216.432 79.4775 216.08 79.6143 215.689C79.751 215.318 79.8584 214.928 79.9365 214.518C80.0146 214.107 80.1318 213.717 80.2881 213.346C80.3662 213.189 80.4736 213.043 80.6104 212.906C80.7471 212.77 80.835 212.623 80.874 212.467C80.9521 212.174 80.9717 211.871 80.9326 211.559C80.9131 211.227 80.9521 210.904 81.0498 210.592C81.0889 210.475 81.1572 210.367 81.2549 210.27C81.3525 210.172 81.4209 210.064 81.46 209.947C81.5186 209.732 81.5283 209.508 81.4893 209.273C81.4502 209.039 81.4404 208.814 81.46 208.6C81.4795 208.424 81.5186 208.258 81.5771 208.102C81.6357 207.945 81.6846 207.779 81.7236 207.604C81.7432 207.525 81.7432 207.438 81.7236 207.34C81.7236 207.242 81.7334 207.145 81.7529 207.047C81.8311 206.832 81.9385 206.617 82.0752 206.402C82.2119 206.188 82.3193 205.943 82.3975 205.67C82.6123 204.986 82.8271 204.254 83.042 203.473C83.2764 202.672 83.374 201.852 83.335 201.012C83.3154 200.895 83.2861 200.787 83.2471 200.689C83.2275 200.572 83.208 200.465 83.1885 200.367C83.1689 200.094 83.1689 199.859 83.1885 199.664C83.2275 199.469 83.1982 199.273 83.1006 199.078C83.042 198.961 82.9248 198.805 82.749 198.609C82.5732 198.395 82.417 198.18 82.2803 197.965C82.1631 197.73 82.0947 197.516 82.0752 197.32C82.0557 197.125 82.1826 196.979 82.4561 196.881ZM90.9521 209.244C91.2061 209.127 91.4209 208.98 91.5967 208.805C91.7725 208.629 92.0068 208.541 92.2998 208.541C92.4561 208.385 92.5635 208.199 92.6221 207.984C92.7002 207.77 92.7979 207.564 92.915 207.369C93.208 207.271 93.4033 207.105 93.501 206.871C93.5986 206.637 93.6963 206.383 93.7939 206.109C93.833 206.012 93.8818 205.924 93.9404 205.846C94.0186 205.748 94.0771 205.65 94.1162 205.553C94.3701 204.986 94.5557 204.459 94.6729 203.971C94.79 203.463 94.7998 202.896 94.7021 202.271C94.6631 201.939 94.5752 201.666 94.4385 201.451C94.3213 201.217 94.1748 201.012 93.999 200.836C93.8232 200.641 93.6377 200.465 93.4424 200.309C93.2471 200.152 93.0615 199.977 92.8857 199.781C92.6904 199.742 92.4658 199.674 92.2119 199.576C91.9775 199.459 91.7041 199.41 91.3916 199.43C91.1963 199.43 91.001 199.459 90.8057 199.518C90.6299 199.576 90.4443 199.625 90.249 199.664C89.9756 200.172 89.751 200.758 89.5752 201.422C89.3994 202.066 89.1748 202.662 88.9014 203.209C88.8623 203.326 88.7939 203.434 88.6963 203.531C88.6182 203.629 88.5596 203.727 88.5205 203.824C88.501 203.941 88.5107 204.068 88.5498 204.205C88.6084 204.322 88.6279 204.439 88.6084 204.557C88.5889 204.693 88.5498 204.82 88.4912 204.938C88.4521 205.035 88.4131 205.143 88.374 205.26C88.2959 205.514 88.2275 205.787 88.1689 206.08C88.1299 206.373 88.0615 206.656 87.9639 206.93C87.8467 207.359 87.71 207.77 87.5537 208.16C87.3975 208.551 87.3877 208.951 87.5244 209.361C87.9932 209.518 88.5596 209.596 89.2236 209.596C89.8877 209.596 90.4639 209.479 90.9521 209.244ZM105.894 205.641C106.265 205.387 106.587 205.094 106.86 204.762C107.134 204.43 107.397 204.098 107.651 203.766C107.808 203.785 107.944 203.756 108.062 203.678C108.179 203.6 108.306 203.541 108.442 203.502C108.716 203.424 108.989 203.434 109.263 203.531C109.556 203.609 109.839 203.639 110.112 203.619C110.444 203.58 110.757 203.492 111.05 203.355C111.362 203.219 111.724 203.15 112.134 203.15C112.271 203.15 112.397 203.199 112.515 203.297C112.632 203.375 112.749 203.424 112.866 203.443C113.022 203.482 113.159 203.463 113.276 203.385C113.413 203.307 113.56 203.268 113.716 203.268C113.989 203.268 114.194 203.355 114.331 203.531C114.487 203.707 114.663 203.883 114.858 204.059C114.956 204.508 114.966 204.947 114.888 205.377C114.81 205.807 114.79 206.246 114.829 206.695C114.868 206.988 114.907 207.271 114.946 207.545C115.005 207.818 115.034 208.102 115.034 208.395C115.054 208.648 115.034 208.922 114.976 209.215C114.937 209.488 114.927 209.762 114.946 210.035C114.966 210.133 114.995 210.23 115.034 210.328C115.073 210.426 115.083 210.523 115.063 210.621C115.024 210.836 114.937 211.002 114.8 211.119C114.663 211.236 114.585 211.393 114.565 211.588C114.526 211.881 114.585 212.154 114.741 212.408C114.917 212.662 115.024 212.926 115.063 213.199C115.083 213.316 115.073 213.443 115.034 213.58C114.995 213.717 114.976 213.844 114.976 213.961C114.937 214.391 114.937 214.869 114.976 215.396C115.034 215.924 115.073 216.412 115.093 216.861C115.093 217.018 115.103 217.174 115.122 217.33C115.161 217.486 115.161 217.613 115.122 217.711C115.103 217.809 115.054 217.887 114.976 217.945C114.917 218.004 114.868 218.072 114.829 218.15C114.81 218.248 114.81 218.385 114.829 218.561C114.868 218.736 114.888 218.902 114.888 219.059C114.888 219.195 114.878 219.322 114.858 219.439C114.839 219.576 114.829 219.693 114.829 219.791C114.849 219.85 114.868 219.908 114.888 219.967C114.927 220.045 114.937 220.113 114.917 220.172C114.878 220.348 114.741 220.533 114.507 220.729C114.292 220.943 114.067 221.041 113.833 221.021C113.716 221.002 113.54 220.904 113.306 220.729C113.091 220.572 112.935 220.445 112.837 220.348C112.661 220.133 112.554 219.859 112.515 219.527C112.476 219.195 112.388 218.893 112.251 218.619C112.192 218.521 112.104 218.434 111.987 218.355C111.89 218.258 111.802 218.15 111.724 218.033C111.606 217.818 111.528 217.604 111.489 217.389C111.45 217.154 111.421 216.93 111.401 216.715C111.401 216.48 111.392 216.256 111.372 216.041C111.353 215.807 111.304 215.572 111.226 215.338C111.187 215.26 111.128 215.191 111.05 215.133C110.972 215.074 110.903 214.996 110.845 214.898C110.728 214.703 110.649 214.537 110.61 214.4C110.571 214.264 110.444 214.156 110.229 214.078C109.546 214.078 108.853 214.059 108.149 214.02C107.466 213.98 106.792 214 106.128 214.078C105.972 214.098 105.835 214.137 105.718 214.195C105.601 214.234 105.464 214.264 105.308 214.283C105.229 214.283 105.151 214.273 105.073 214.254C104.995 214.234 104.927 214.225 104.868 214.225C104.595 214.264 104.331 214.391 104.077 214.605C103.823 214.801 103.628 214.996 103.491 215.191C103.413 215.309 103.364 215.455 103.345 215.631C103.345 215.787 103.315 215.943 103.257 216.1C103.198 216.256 103.101 216.402 102.964 216.539C102.827 216.656 102.778 216.812 102.817 217.008C102.603 217.164 102.417 217.359 102.261 217.594C102.124 217.828 101.987 218.072 101.851 218.326C101.714 218.561 101.558 218.785 101.382 219C101.226 219.215 101.03 219.371 100.796 219.469C100.698 219.508 100.601 219.557 100.503 219.615C100.425 219.674 100.337 219.703 100.239 219.703C100.142 219.684 100.083 219.654 100.063 219.615C100.063 219.576 100.005 219.518 99.8877 219.439C99.7705 219.361 99.6338 219.273 99.4775 219.176C99.3018 219.078 99.1357 218.971 98.9795 218.854C98.8232 218.736 98.6865 218.619 98.5693 218.502C98.4326 218.365 98.335 218.238 98.2764 218.121C98.1201 217.789 98.0908 217.555 98.1885 217.418C98.2861 217.262 98.4131 217.076 98.5693 216.861C98.7842 216.549 99.0283 216.197 99.3018 215.807C99.5752 215.416 99.8193 215.045 100.034 214.693C100.151 214.498 100.249 214.312 100.327 214.137C100.425 213.961 100.542 213.795 100.679 213.639C100.835 213.424 101.03 213.248 101.265 213.111C101.519 212.975 101.694 212.799 101.792 212.584C101.831 212.486 101.851 212.389 101.851 212.291C101.851 212.174 101.87 212.057 101.909 211.939C102.065 211.549 102.31 211.197 102.642 210.885C102.974 210.572 103.228 210.221 103.403 209.83C103.442 209.732 103.462 209.645 103.462 209.566C103.481 209.469 103.511 209.371 103.55 209.273C103.862 208.551 104.243 207.906 104.692 207.34C105.161 206.773 105.562 206.207 105.894 205.641ZM109.995 205.553C109.761 205.729 109.556 205.934 109.38 206.168C109.224 206.383 109.009 206.549 108.735 206.666C108.657 206.842 108.56 207.008 108.442 207.164C108.345 207.32 108.208 207.447 108.032 207.545C107.974 207.857 107.856 208.131 107.681 208.365C107.505 208.58 107.339 208.795 107.183 209.01C107.104 209.088 107.036 209.176 106.978 209.273C106.919 209.352 106.851 209.439 106.772 209.537C106.675 209.635 106.577 209.713 106.479 209.771C106.382 209.811 106.294 209.869 106.216 209.947C106.099 210.104 105.972 210.318 105.835 210.592C105.698 210.865 105.571 211.09 105.454 211.266C105.356 211.363 105.259 211.461 105.161 211.559C105.063 211.656 105.034 211.783 105.073 211.939C105.132 212.096 105.249 212.203 105.425 212.262C105.601 212.301 105.796 212.33 106.011 212.35C106.245 212.35 106.47 212.34 106.685 212.32C106.899 212.301 107.075 212.291 107.212 212.291C107.485 212.291 107.759 212.301 108.032 212.32C108.325 212.32 108.599 212.311 108.853 212.291C109.126 212.271 109.36 212.223 109.556 212.145C109.771 212.066 109.937 211.949 110.054 211.793C110.249 211.168 110.298 210.543 110.2 209.918C110.103 209.273 110.015 208.639 109.937 208.014C109.897 207.838 109.868 207.643 109.849 207.428C109.829 207.213 109.829 207.018 109.849 206.842C109.868 206.646 109.927 206.461 110.024 206.285C110.142 206.09 110.161 205.865 110.083 205.611L109.995 205.553ZM133.433 203.678C133.394 203.99 133.276 204.186 133.081 204.264C132.905 204.342 132.72 204.43 132.524 204.527C132.388 204.625 132.29 204.752 132.231 204.908C132.173 205.064 132.095 205.182 131.997 205.26C131.899 205.357 131.753 205.436 131.558 205.494C131.382 205.533 131.235 205.572 131.118 205.611C130.786 205.709 130.435 205.758 130.063 205.758C129.712 205.758 129.399 205.777 129.126 205.816C128.97 205.855 128.813 205.943 128.657 206.08C128.501 206.217 128.335 206.324 128.159 206.402C127.983 206.461 127.847 206.51 127.749 206.549C127.651 206.588 127.563 206.637 127.485 206.695C127.427 206.754 127.368 206.832 127.31 206.93C127.251 207.008 127.173 207.125 127.075 207.281C126.978 207.457 126.929 207.711 126.929 208.043C126.929 208.375 126.899 208.648 126.841 208.863C126.782 209.039 126.714 209.244 126.636 209.479C126.577 209.713 126.509 209.967 126.431 210.24C126.392 210.396 126.372 210.572 126.372 210.768C126.372 210.943 126.353 211.109 126.313 211.266C126.255 211.461 126.157 211.607 126.021 211.705C125.903 211.803 125.815 211.979 125.757 212.232C125.718 212.35 125.698 212.477 125.698 212.613C125.718 212.73 125.718 212.848 125.698 212.965C125.62 213.434 125.522 213.941 125.405 214.488C125.308 215.035 125.21 215.572 125.112 216.1C125.015 216.549 124.907 216.979 124.79 217.389C124.692 217.799 124.565 218.18 124.409 218.531C124.253 218.512 124.097 218.561 123.94 218.678C123.784 218.775 123.628 218.844 123.472 218.883C123.335 218.922 123.198 218.941 123.062 218.941C122.944 218.941 122.827 218.99 122.71 219.088C122.573 219.225 122.397 219.4 122.183 219.615C121.968 219.85 121.782 219.986 121.626 220.025C121.489 220.064 121.362 220.064 121.245 220.025C121.147 219.986 121.05 219.957 120.952 219.938C120.796 219.938 120.64 219.938 120.483 219.938C120.347 219.957 120.181 219.957 119.985 219.938C119.907 219.742 119.878 219.527 119.897 219.293C119.917 219.078 119.956 218.863 120.015 218.648C120.093 218.434 120.171 218.229 120.249 218.033C120.347 217.818 120.415 217.613 120.454 217.418C120.493 217.281 120.513 217.135 120.513 216.979C120.532 216.822 120.571 216.666 120.63 216.51C120.688 216.334 120.776 216.178 120.894 216.041C121.03 215.885 121.128 215.709 121.187 215.514C121.265 215.299 121.362 215.045 121.479 214.752C121.597 214.459 121.665 214.215 121.685 214.02C121.724 213.785 121.714 213.561 121.655 213.346C121.616 213.131 121.636 212.896 121.714 212.643C121.753 212.525 121.802 212.428 121.86 212.35C121.938 212.252 121.997 212.125 122.036 211.969C122.095 211.754 122.134 211.529 122.153 211.295C122.173 211.041 122.202 210.797 122.241 210.562C122.28 210.348 122.319 210.143 122.358 209.947C122.397 209.732 122.446 209.518 122.505 209.303C122.563 209.049 122.622 208.814 122.681 208.6C122.759 208.365 122.817 208.141 122.856 207.926C122.915 207.711 122.944 207.506 122.944 207.311C122.944 207.096 122.886 206.871 122.769 206.637C122.651 206.422 122.495 206.266 122.3 206.168C122.104 206.07 121.89 206.012 121.655 205.992C121.421 205.973 121.167 205.973 120.894 205.992C120.62 206.012 120.356 206.021 120.103 206.021C120.005 205.963 119.917 205.855 119.839 205.699C119.761 205.543 119.653 205.436 119.517 205.377C119.282 205.299 119.019 205.26 118.726 205.26C118.452 205.26 118.247 205.152 118.11 204.938C117.993 204.645 117.983 204.361 118.081 204.088C118.198 203.814 118.335 203.619 118.491 203.502C119.214 203.385 119.966 203.395 120.747 203.531C121.528 203.648 122.31 203.697 123.091 203.678C123.403 203.658 123.716 203.6 124.028 203.502C124.341 203.404 124.663 203.404 124.995 203.502C125.093 203.541 125.259 203.609 125.493 203.707C125.747 203.785 125.923 203.844 126.021 203.883C126.118 203.902 126.216 203.902 126.313 203.883C126.411 203.863 126.509 203.863 126.606 203.883C126.763 203.883 126.909 203.912 127.046 203.971C127.202 204.01 127.358 204.029 127.515 204.029C127.71 204.029 127.847 204.029 127.925 204.029C128.022 204.01 128.101 203.99 128.159 203.971C128.237 203.951 128.315 203.932 128.394 203.912C128.472 203.873 128.599 203.844 128.774 203.824C128.931 203.805 129.087 203.814 129.243 203.854C129.399 203.893 129.556 203.912 129.712 203.912C130.142 203.932 130.552 203.883 130.942 203.766C131.353 203.629 131.753 203.541 132.144 203.502C132.358 203.482 132.573 203.482 132.788 203.502C133.022 203.502 133.237 203.561 133.433 203.678ZM146.909 203.678C146.87 203.99 146.753 204.186 146.558 204.264C146.382 204.342 146.196 204.43 146.001 204.527C145.864 204.625 145.767 204.752 145.708 204.908C145.649 205.064 145.571 205.182 145.474 205.26C145.376 205.357 145.229 205.436 145.034 205.494C144.858 205.533 144.712 205.572 144.595 205.611C144.263 205.709 143.911 205.758 143.54 205.758C143.188 205.758 142.876 205.777 142.603 205.816C142.446 205.855 142.29 205.943 142.134 206.08C141.978 206.217 141.812 206.324 141.636 206.402C141.46 206.461 141.323 206.51 141.226 206.549C141.128 206.588 141.04 206.637 140.962 206.695C140.903 206.754 140.845 206.832 140.786 206.93C140.728 207.008 140.649 207.125 140.552 207.281C140.454 207.457 140.405 207.711 140.405 208.043C140.405 208.375 140.376 208.648 140.317 208.863C140.259 209.039 140.19 209.244 140.112 209.479C140.054 209.713 139.985 209.967 139.907 210.24C139.868 210.396 139.849 210.572 139.849 210.768C139.849 210.943 139.829 211.109 139.79 211.266C139.731 211.461 139.634 211.607 139.497 211.705C139.38 211.803 139.292 211.979 139.233 212.232C139.194 212.35 139.175 212.477 139.175 212.613C139.194 212.73 139.194 212.848 139.175 212.965C139.097 213.434 138.999 213.941 138.882 214.488C138.784 215.035 138.687 215.572 138.589 216.1C138.491 216.549 138.384 216.979 138.267 217.389C138.169 217.799 138.042 218.18 137.886 218.531C137.729 218.512 137.573 218.561 137.417 218.678C137.261 218.775 137.104 218.844 136.948 218.883C136.812 218.922 136.675 218.941 136.538 218.941C136.421 218.941 136.304 218.99 136.187 219.088C136.05 219.225 135.874 219.4 135.659 219.615C135.444 219.85 135.259 219.986 135.103 220.025C134.966 220.064 134.839 220.064 134.722 220.025C134.624 219.986 134.526 219.957 134.429 219.938C134.272 219.938 134.116 219.938 133.96 219.938C133.823 219.957 133.657 219.957 133.462 219.938C133.384 219.742 133.354 219.527 133.374 219.293C133.394 219.078 133.433 218.863 133.491 218.648C133.569 218.434 133.647 218.229 133.726 218.033C133.823 217.818 133.892 217.613 133.931 217.418C133.97 217.281 133.989 217.135 133.989 216.979C134.009 216.822 134.048 216.666 134.106 216.51C134.165 216.334 134.253 216.178 134.37 216.041C134.507 215.885 134.604 215.709 134.663 215.514C134.741 215.299 134.839 215.045 134.956 214.752C135.073 214.459 135.142 214.215 135.161 214.02C135.2 213.785 135.19 213.561 135.132 213.346C135.093 213.131 135.112 212.896 135.19 212.643C135.229 212.525 135.278 212.428 135.337 212.35C135.415 212.252 135.474 212.125 135.513 211.969C135.571 211.754 135.61 211.529 135.63 211.295C135.649 211.041 135.679 210.797 135.718 210.562C135.757 210.348 135.796 210.143 135.835 209.947C135.874 209.732 135.923 209.518 135.981 209.303C136.04 209.049 136.099 208.814 136.157 208.6C136.235 208.365 136.294 208.141 136.333 207.926C136.392 207.711 136.421 207.506 136.421 207.311C136.421 207.096 136.362 206.871 136.245 206.637C136.128 206.422 135.972 206.266 135.776 206.168C135.581 206.07 135.366 206.012 135.132 205.992C134.897 205.973 134.644 205.973 134.37 205.992C134.097 206.012 133.833 206.021 133.579 206.021C133.481 205.963 133.394 205.855 133.315 205.699C133.237 205.543 133.13 205.436 132.993 205.377C132.759 205.299 132.495 205.26 132.202 205.26C131.929 205.26 131.724 205.152 131.587 204.938C131.47 204.645 131.46 204.361 131.558 204.088C131.675 203.814 131.812 203.619 131.968 203.502C132.69 203.385 133.442 203.395 134.224 203.531C135.005 203.648 135.786 203.697 136.567 203.678C136.88 203.658 137.192 203.6 137.505 203.502C137.817 203.404 138.14 203.404 138.472 203.502C138.569 203.541 138.735 203.609 138.97 203.707C139.224 203.785 139.399 203.844 139.497 203.883C139.595 203.902 139.692 203.902 139.79 203.883C139.888 203.863 139.985 203.863 140.083 203.883C140.239 203.883 140.386 203.912 140.522 203.971C140.679 204.01 140.835 204.029 140.991 204.029C141.187 204.029 141.323 204.029 141.401 204.029C141.499 204.01 141.577 203.99 141.636 203.971C141.714 203.951 141.792 203.932 141.87 203.912C141.948 203.873 142.075 203.844 142.251 203.824C142.407 203.805 142.563 203.814 142.72 203.854C142.876 203.893 143.032 203.912 143.188 203.912C143.618 203.932 144.028 203.883 144.419 203.766C144.829 203.629 145.229 203.541 145.62 203.502C145.835 203.482 146.05 203.482 146.265 203.502C146.499 203.502 146.714 203.561 146.909 203.678ZM144.214 217.506C144.253 217.057 144.399 216.656 144.653 216.305C144.927 215.934 145.132 215.553 145.269 215.162C145.347 214.908 145.396 214.645 145.415 214.371C145.454 214.078 145.474 213.795 145.474 213.521C145.493 213.229 145.522 212.945 145.562 212.672C145.601 212.379 145.669 212.096 145.767 211.822C145.669 211.646 145.63 211.451 145.649 211.236C145.669 211.021 145.679 210.797 145.679 210.562C145.776 210.426 145.854 210.27 145.913 210.094C145.972 209.918 146.108 209.801 146.323 209.742C146.519 209.312 146.616 208.873 146.616 208.424C146.616 207.955 146.665 207.477 146.763 206.988C146.782 206.891 146.821 206.803 146.88 206.725C146.938 206.646 146.987 206.559 147.026 206.461C147.163 206.051 147.231 205.621 147.231 205.172C147.231 204.703 147.31 204.264 147.466 203.854C147.583 203.814 147.729 203.756 147.905 203.678C148.081 203.58 148.257 203.492 148.433 203.414C148.628 203.316 148.813 203.238 148.989 203.18C149.165 203.121 149.321 203.102 149.458 203.121C149.556 203.16 149.653 203.219 149.751 203.297C149.849 203.355 149.966 203.434 150.103 203.531C150.2 203.59 150.288 203.658 150.366 203.736C150.464 203.814 150.562 203.883 150.659 203.941C150.737 203.98 150.835 204.02 150.952 204.059C151.089 204.078 151.177 204.107 151.216 204.146C151.235 204.166 151.294 204.234 151.392 204.352C151.509 204.469 151.616 204.596 151.714 204.732C151.831 204.869 151.938 205.006 152.036 205.143C152.134 205.26 152.192 205.338 152.212 205.377C152.231 205.494 152.222 205.631 152.183 205.787C152.144 205.924 152.085 206.07 152.007 206.227C151.948 206.363 151.88 206.51 151.802 206.666C151.743 206.803 151.694 206.93 151.655 207.047C151.597 207.262 151.538 207.477 151.479 207.691C151.421 207.887 151.343 208.092 151.245 208.307C151.147 208.561 151.04 208.854 150.923 209.186C150.806 209.518 150.728 209.869 150.688 210.24C150.649 210.514 150.542 210.719 150.366 210.855C150.21 210.992 150.103 211.188 150.044 211.441C150.005 211.617 149.985 211.803 149.985 211.998C149.985 212.193 149.985 212.389 149.985 212.584C150.005 212.76 150.005 212.936 149.985 213.111C149.985 213.287 149.946 213.453 149.868 213.609C149.81 213.707 149.722 213.785 149.604 213.844C149.487 213.883 149.39 213.951 149.312 214.049C149.194 214.244 149.087 214.488 148.989 214.781C148.911 215.074 148.843 215.387 148.784 215.719C148.726 216.031 148.696 216.354 148.696 216.686C148.716 216.998 148.774 217.281 148.872 217.535C148.774 217.848 148.599 218.121 148.345 218.355C148.11 218.59 147.827 218.775 147.495 218.912C147.163 219.029 146.802 219.088 146.411 219.088C146.04 219.107 145.659 219.049 145.269 218.912C145.112 218.678 144.927 218.463 144.712 218.268C144.497 218.053 144.331 217.799 144.214 217.506ZM180.601 202.682C180.698 203.131 180.747 203.531 180.747 203.883C180.747 204.234 180.61 204.527 180.337 204.762C180.259 204.84 180.171 204.898 180.073 204.938C179.976 204.957 179.888 205.006 179.81 205.084C179.673 205.221 179.565 205.377 179.487 205.553C179.429 205.729 179.351 205.895 179.253 206.051C178.687 206.324 178.159 206.656 177.671 207.047C177.183 207.418 176.665 207.76 176.118 208.072C175.864 208.209 175.61 208.375 175.356 208.57C175.122 208.766 174.888 208.941 174.653 209.098C174.556 209.195 174.458 209.293 174.36 209.391C174.282 209.488 174.185 209.576 174.067 209.654C173.931 209.752 173.784 209.82 173.628 209.859C173.472 209.879 173.325 209.918 173.188 209.977C172.974 210.113 172.798 210.27 172.661 210.445C172.524 210.621 172.358 210.816 172.163 211.031C172.163 211.539 172.222 211.979 172.339 212.35C172.476 212.701 172.632 213.043 172.808 213.375C172.983 213.688 173.149 214.01 173.306 214.342C173.481 214.674 173.618 215.045 173.716 215.455C174.009 215.592 174.204 215.807 174.302 216.1C174.419 216.393 174.585 216.646 174.8 216.861C174.858 216.939 174.937 216.998 175.034 217.037C175.132 217.057 175.22 217.105 175.298 217.184C175.396 217.262 175.474 217.359 175.532 217.477C175.591 217.594 175.669 217.701 175.767 217.799C175.942 217.955 176.118 218.092 176.294 218.209C176.489 218.307 176.665 218.434 176.821 218.59C176.978 218.746 177.134 218.912 177.29 219.088C177.446 219.264 177.661 219.391 177.935 219.469C178.11 219.801 178.306 220.104 178.521 220.377C178.735 220.65 179.038 220.846 179.429 220.963C179.468 221.119 179.556 221.246 179.692 221.344C179.829 221.461 179.888 221.578 179.868 221.695C179.81 221.91 179.634 222.027 179.341 222.047C179.048 222.086 178.706 222.086 178.315 222.047C177.944 222.008 177.573 221.949 177.202 221.871C176.851 221.793 176.587 221.744 176.411 221.725C176.372 221.686 176.323 221.646 176.265 221.607C176.226 221.588 176.187 221.559 176.147 221.52C175.698 221.48 175.317 221.383 175.005 221.227C174.692 221.07 174.39 220.904 174.097 220.729C173.96 220.475 173.813 220.23 173.657 219.996C173.501 219.762 173.315 219.547 173.101 219.352C173.101 219.195 173.071 219.059 173.013 218.941C172.974 218.824 172.954 218.668 172.954 218.473C172.798 218.355 172.642 218.248 172.485 218.15C172.329 218.033 172.124 217.955 171.87 217.916C171.694 217.643 171.558 217.35 171.46 217.037C171.362 216.705 171.206 216.402 170.991 216.129C170.952 216.051 170.894 215.992 170.815 215.953C170.757 215.914 170.708 215.846 170.669 215.748C170.63 215.631 170.61 215.514 170.61 215.396C170.63 215.26 170.62 215.143 170.581 215.045C170.522 214.752 170.415 214.508 170.259 214.312C170.122 214.098 169.995 213.873 169.878 213.639C169.839 213.189 169.712 212.945 169.497 212.906C169.282 212.867 169.038 212.926 168.765 213.082C168.511 213.219 168.257 213.395 168.003 213.609C167.749 213.824 167.554 213.971 167.417 214.049C167.28 214.264 167.183 214.547 167.124 214.898C167.065 215.25 166.978 215.582 166.86 215.895C166.821 215.973 166.763 216.041 166.685 216.1C166.626 216.158 166.558 216.266 166.479 216.422C166.323 216.734 166.206 217.135 166.128 217.623C166.069 218.111 165.962 218.551 165.806 218.941C165.688 219.312 165.415 219.527 164.985 219.586C164.556 219.645 164.165 219.557 163.813 219.322C163.657 219.42 163.511 219.518 163.374 219.615C163.257 219.713 163.12 219.762 162.964 219.762C162.749 219.742 162.544 219.645 162.349 219.469C162.153 219.312 161.968 219.205 161.792 219.146C161.772 218.854 161.792 218.561 161.851 218.268C161.909 217.955 161.978 217.662 162.056 217.389C162.114 217.096 162.173 216.812 162.231 216.539C162.31 216.266 162.378 215.982 162.437 215.689C162.476 215.553 162.505 215.416 162.524 215.279C162.563 215.143 162.603 215.016 162.642 214.898C162.681 214.781 162.739 214.674 162.817 214.576C162.896 214.479 162.954 214.371 162.993 214.254C163.032 214.137 163.042 214.02 163.022 213.902C163.003 213.785 162.993 213.668 162.993 213.551C163.032 213.316 163.101 213.092 163.198 212.877C163.296 212.662 163.413 212.477 163.55 212.32C163.569 211.871 163.618 211.461 163.696 211.09C163.794 210.699 163.892 210.328 163.989 209.977C164.106 209.625 164.214 209.273 164.312 208.922C164.429 208.551 164.517 208.17 164.575 207.779C164.81 207.369 165.034 206.871 165.249 206.285C165.347 206.031 165.425 205.758 165.483 205.465C165.562 205.172 165.64 204.898 165.718 204.645C165.796 204.391 165.894 204.166 166.011 203.971C166.147 203.775 166.333 203.629 166.567 203.531C166.665 203.199 166.851 202.906 167.124 202.652C167.417 202.398 167.759 202.369 168.149 202.564C168.228 202.643 168.286 202.75 168.325 202.887C168.384 203.004 168.433 203.131 168.472 203.268C168.511 203.385 168.55 203.502 168.589 203.619C168.647 203.736 168.726 203.834 168.823 203.912C168.979 204.049 169.155 204.117 169.351 204.117C169.546 204.117 169.731 204.176 169.907 204.293C170.005 204.547 170.044 204.781 170.024 204.996C170.024 205.211 169.985 205.426 169.907 205.641C169.829 205.836 169.741 206.031 169.644 206.227C169.546 206.422 169.468 206.617 169.409 206.812C169.37 206.91 169.351 207.027 169.351 207.164C169.351 207.281 169.331 207.389 169.292 207.486C169.253 207.584 169.214 207.682 169.175 207.779C169.155 207.877 169.126 207.975 169.087 208.072C169.028 208.404 168.97 208.697 168.911 208.951C168.872 209.186 168.735 209.391 168.501 209.566C168.599 209.82 168.599 210.016 168.501 210.152C168.403 210.289 168.345 210.475 168.325 210.709C168.618 210.592 168.882 210.436 169.116 210.24C169.351 210.045 169.575 209.85 169.79 209.654C170.024 209.439 170.259 209.234 170.493 209.039C170.747 208.844 171.03 208.678 171.343 208.541C171.44 208.541 171.538 208.541 171.636 208.541C171.753 208.521 171.86 208.531 171.958 208.57C172.114 208.473 172.251 208.355 172.368 208.219C172.485 208.082 172.593 207.945 172.69 207.809C172.808 207.691 172.905 207.564 172.983 207.428C173.081 207.271 173.188 207.125 173.306 206.988C173.501 206.812 173.706 206.666 173.921 206.549C174.155 206.432 174.38 206.295 174.595 206.139C174.81 205.982 174.976 205.807 175.093 205.611C175.21 205.396 175.366 205.211 175.562 205.055C175.874 204.82 176.216 204.625 176.587 204.469C176.958 204.293 177.31 204.068 177.642 203.795C177.974 203.521 178.335 203.277 178.726 203.062C179.136 202.848 179.517 202.652 179.868 202.477C179.985 202.418 180.103 202.418 180.22 202.477C180.337 202.516 180.464 202.584 180.601 202.682ZM179.253 217.506C179.292 217.057 179.438 216.656 179.692 216.305C179.966 215.934 180.171 215.553 180.308 215.162C180.386 214.908 180.435 214.645 180.454 214.371C180.493 214.078 180.513 213.795 180.513 213.521C180.532 213.229 180.562 212.945 180.601 212.672C180.64 212.379 180.708 212.096 180.806 211.822C180.708 211.646 180.669 211.451 180.688 211.236C180.708 211.021 180.718 210.797 180.718 210.562C180.815 210.426 180.894 210.27 180.952 210.094C181.011 209.918 181.147 209.801 181.362 209.742C181.558 209.312 181.655 208.873 181.655 208.424C181.655 207.955 181.704 207.477 181.802 206.988C181.821 206.891 181.86 206.803 181.919 206.725C181.978 206.646 182.026 206.559 182.065 206.461C182.202 206.051 182.271 205.621 182.271 205.172C182.271 204.703 182.349 204.264 182.505 203.854C182.622 203.814 182.769 203.756 182.944 203.678C183.12 203.58 183.296 203.492 183.472 203.414C183.667 203.316 183.853 203.238 184.028 203.18C184.204 203.121 184.36 203.102 184.497 203.121C184.595 203.16 184.692 203.219 184.79 203.297C184.888 203.355 185.005 203.434 185.142 203.531C185.239 203.59 185.327 203.658 185.405 203.736C185.503 203.814 185.601 203.883 185.698 203.941C185.776 203.98 185.874 204.02 185.991 204.059C186.128 204.078 186.216 204.107 186.255 204.146C186.274 204.166 186.333 204.234 186.431 204.352C186.548 204.469 186.655 204.596 186.753 204.732C186.87 204.869 186.978 205.006 187.075 205.143C187.173 205.26 187.231 205.338 187.251 205.377C187.271 205.494 187.261 205.631 187.222 205.787C187.183 205.924 187.124 206.07 187.046 206.227C186.987 206.363 186.919 206.51 186.841 206.666C186.782 206.803 186.733 206.93 186.694 207.047C186.636 207.262 186.577 207.477 186.519 207.691C186.46 207.887 186.382 208.092 186.284 208.307C186.187 208.561 186.079 208.854 185.962 209.186C185.845 209.518 185.767 209.869 185.728 210.24C185.688 210.514 185.581 210.719 185.405 210.855C185.249 210.992 185.142 211.188 185.083 211.441C185.044 211.617 185.024 211.803 185.024 211.998C185.024 212.193 185.024 212.389 185.024 212.584C185.044 212.76 185.044 212.936 185.024 213.111C185.024 213.287 184.985 213.453 184.907 213.609C184.849 213.707 184.761 213.785 184.644 213.844C184.526 213.883 184.429 213.951 184.351 214.049C184.233 214.244 184.126 214.488 184.028 214.781C183.95 215.074 183.882 215.387 183.823 215.719C183.765 216.031 183.735 216.354 183.735 216.686C183.755 216.998 183.813 217.281 183.911 217.535C183.813 217.848 183.638 218.121 183.384 218.355C183.149 218.59 182.866 218.775 182.534 218.912C182.202 219.029 181.841 219.088 181.45 219.088C181.079 219.107 180.698 219.049 180.308 218.912C180.151 218.678 179.966 218.463 179.751 218.268C179.536 218.053 179.37 217.799 179.253 217.506ZM188.804 218.473C188.394 218.609 188.032 218.561 187.72 218.326C187.407 218.072 187.212 217.779 187.134 217.447C187.095 217.291 187.095 217.057 187.134 216.744C187.173 216.412 187.231 216.148 187.31 215.953C187.388 215.738 187.554 215.484 187.808 215.191C188.062 214.898 188.257 214.566 188.394 214.195C188.53 213.844 188.638 213.512 188.716 213.199C188.813 212.867 188.95 212.604 189.126 212.408C189.263 212.271 189.409 212.154 189.565 212.057C189.722 211.939 189.81 211.793 189.829 211.617C189.829 211.461 189.78 211.324 189.683 211.207C189.604 211.09 189.575 210.934 189.595 210.738C189.595 210.562 189.644 210.338 189.741 210.064C189.858 209.791 189.966 209.547 190.063 209.332C190.278 208.863 190.444 208.385 190.562 207.896C190.601 207.76 190.63 207.604 190.649 207.428C190.688 207.232 190.728 207.086 190.767 206.988C190.825 206.91 190.884 206.783 190.942 206.607C191.021 206.432 191.108 206.256 191.206 206.08C191.304 205.904 191.411 205.748 191.528 205.611C191.646 205.455 191.772 205.348 191.909 205.289C192.065 205.23 192.231 205.191 192.407 205.172C192.603 205.133 192.778 205.074 192.935 204.996C193.11 204.938 193.218 204.869 193.257 204.791C193.296 204.713 193.394 204.635 193.55 204.557C193.667 204.518 193.784 204.498 193.901 204.498C194.038 204.498 194.175 204.479 194.312 204.439C194.468 204.381 194.634 204.293 194.81 204.176C194.985 204.059 195.19 204.068 195.425 204.205C195.522 204.264 195.62 204.439 195.718 204.732C195.815 205.025 195.913 205.299 196.011 205.553C196.05 205.689 196.099 205.855 196.157 206.051C196.235 206.246 196.304 206.451 196.362 206.666C196.421 206.861 196.479 207.047 196.538 207.223C196.597 207.379 196.646 207.496 196.685 207.574C196.782 207.77 196.851 207.975 196.89 208.189C196.929 208.404 196.987 208.6 197.065 208.775C197.163 208.971 197.261 209.156 197.358 209.332C197.456 209.508 197.554 209.703 197.651 209.918C197.749 210.133 197.837 210.338 197.915 210.533C197.993 210.729 198.091 210.934 198.208 211.148C198.286 211.305 198.403 211.451 198.56 211.588C198.716 211.705 198.813 211.842 198.853 211.998C198.911 212.154 198.911 212.33 198.853 212.525C198.794 212.701 198.784 212.867 198.823 213.023C198.882 213.238 199.009 213.414 199.204 213.551C199.399 213.688 199.575 213.834 199.731 213.99C199.829 214.107 199.888 214.225 199.907 214.342C199.927 214.459 200.015 214.537 200.171 214.576C200.21 214.205 200.249 213.883 200.288 213.609C200.347 213.336 200.405 213.072 200.464 212.818C200.522 212.545 200.581 212.271 200.64 211.998C200.698 211.705 200.747 211.383 200.786 211.031C200.981 210.777 201.157 210.543 201.313 210.328C201.47 210.094 201.538 209.791 201.519 209.42C201.499 209.303 201.46 209.186 201.401 209.068C201.362 208.951 201.353 208.824 201.372 208.688C201.392 208.492 201.431 208.316 201.489 208.16C201.548 208.004 201.626 207.809 201.724 207.574C201.782 207.418 201.831 207.262 201.87 207.105C201.909 206.93 201.958 206.744 202.017 206.549C202.075 206.393 202.124 206.266 202.163 206.168C202.222 206.07 202.28 205.982 202.339 205.904C202.397 205.807 202.446 205.709 202.485 205.611C202.524 205.494 202.563 205.328 202.603 205.113C202.661 204.781 202.69 204.498 202.69 204.264C202.69 204.029 202.739 203.795 202.837 203.561C202.993 203.209 203.237 202.916 203.569 202.682C203.921 202.428 204.253 202.223 204.565 202.066C205.112 202.086 205.562 202.232 205.913 202.506C206.265 202.76 206.489 203.072 206.587 203.443C206.724 203.795 206.714 204.088 206.558 204.322C206.401 204.537 206.245 204.781 206.089 205.055C205.991 205.23 205.913 205.396 205.854 205.553C205.815 205.709 205.776 205.865 205.737 206.021C205.718 206.158 205.688 206.305 205.649 206.461C205.63 206.617 205.581 206.793 205.503 206.988C205.444 207.184 205.356 207.35 205.239 207.486C205.122 207.604 205.044 207.73 205.005 207.867C205.063 208.141 205.083 208.365 205.063 208.541C205.063 208.717 205.034 208.883 204.976 209.039C204.937 209.176 204.888 209.322 204.829 209.479C204.79 209.615 204.751 209.771 204.712 209.947C204.673 210.084 204.653 210.221 204.653 210.357C204.653 210.494 204.634 210.621 204.595 210.738C204.536 210.973 204.458 211.188 204.36 211.383C204.263 211.578 204.165 211.764 204.067 211.939C203.931 212.232 203.774 212.506 203.599 212.76C203.442 213.014 203.345 213.355 203.306 213.785C203.286 214.059 203.267 214.303 203.247 214.518C203.247 214.713 203.237 214.898 203.218 215.074C203.218 215.25 203.188 215.436 203.13 215.631C203.091 215.826 203.032 216.061 202.954 216.334C202.915 216.49 202.856 216.646 202.778 216.803C202.72 216.939 202.671 217.086 202.632 217.242C202.515 217.75 202.349 218.141 202.134 218.414C201.919 218.668 201.597 218.932 201.167 219.205C200.933 219.264 200.698 219.322 200.464 219.381C200.229 219.439 199.995 219.469 199.761 219.469C199.546 219.469 199.341 219.43 199.146 219.352C198.95 219.293 198.784 219.156 198.647 218.941C198.55 218.785 198.442 218.561 198.325 218.268C198.228 217.955 198.11 217.652 197.974 217.359C197.915 217.223 197.847 217.096 197.769 216.979C197.71 216.842 197.661 216.705 197.622 216.568C197.524 216.354 197.456 216.168 197.417 216.012C197.397 215.855 197.339 215.641 197.241 215.367C197.104 214.938 196.89 214.615 196.597 214.4C196.304 214.186 196.05 213.951 195.835 213.697C195.815 213.502 195.786 213.326 195.747 213.17C195.708 213.014 195.62 212.887 195.483 212.789C195.444 212.75 195.396 212.73 195.337 212.73C195.278 212.711 195.229 212.672 195.19 212.613C195.132 212.535 195.093 212.447 195.073 212.35C195.054 212.232 195.015 212.145 194.956 212.086C194.917 212.047 194.858 211.959 194.78 211.822C194.702 211.686 194.624 211.549 194.546 211.412C194.487 211.275 194.419 211.158 194.341 211.061C194.263 210.943 194.204 210.895 194.165 210.914C194.067 210.914 193.97 210.992 193.872 211.148C193.794 211.305 193.706 211.48 193.608 211.676C193.53 211.871 193.452 212.066 193.374 212.262C193.296 212.438 193.228 212.564 193.169 212.643C193.071 212.779 192.993 212.984 192.935 213.258C192.896 213.512 192.837 213.717 192.759 213.873C192.622 214.107 192.495 214.342 192.378 214.576C192.28 214.811 192.31 215.064 192.466 215.338C192.466 215.475 192.427 215.592 192.349 215.689C192.29 215.768 192.28 215.904 192.319 216.1C192.202 216.314 192.085 216.559 191.968 216.832C191.87 217.105 191.763 217.408 191.646 217.74C191.587 217.936 191.538 218.141 191.499 218.355C191.46 218.551 191.411 218.746 191.353 218.941C191.294 219.117 191.206 219.273 191.089 219.41C190.991 219.547 190.854 219.625 190.679 219.645C190.444 219.684 190.249 219.654 190.093 219.557C189.937 219.459 189.79 219.342 189.653 219.205C189.517 219.088 189.38 218.961 189.243 218.824C189.106 218.668 188.96 218.551 188.804 218.473ZM222.993 203.736C222.954 203.932 222.886 204.098 222.788 204.234C222.71 204.371 222.622 204.518 222.524 204.674C222.173 204.752 221.841 204.908 221.528 205.143C221.235 205.357 220.894 205.484 220.503 205.523C220.425 205.523 220.347 205.514 220.269 205.494C220.21 205.455 220.142 205.436 220.063 205.436C219.829 205.416 219.565 205.426 219.272 205.465C218.999 205.504 218.726 205.543 218.452 205.582C218.081 205.621 217.769 205.709 217.515 205.846C217.261 205.982 216.968 206.09 216.636 206.168C215.874 206.363 215.19 206.646 214.585 207.018C213.999 207.369 213.54 207.857 213.208 208.482C213.052 208.775 212.886 209.117 212.71 209.508C212.554 209.879 212.319 210.182 212.007 210.416C212.104 210.631 212.134 210.826 212.095 211.002C212.075 211.178 212.026 211.344 211.948 211.5C211.89 211.637 211.812 211.783 211.714 211.939C211.636 212.076 211.577 212.213 211.538 212.35C211.499 212.428 211.479 212.516 211.479 212.613C211.499 212.711 211.499 212.809 211.479 212.906C211.382 213.531 211.421 214.117 211.597 214.664C211.772 215.191 212.104 215.562 212.593 215.777C212.905 215.934 213.208 216.021 213.501 216.041C213.794 216.061 214.155 216.051 214.585 216.012C215.034 215.973 215.522 215.943 216.05 215.924C216.577 215.904 216.987 215.787 217.28 215.572C217.437 215.455 217.554 215.299 217.632 215.104C217.71 214.908 217.827 214.713 217.983 214.518C218.14 214.303 218.267 214.049 218.364 213.756C218.462 213.443 218.501 213.16 218.481 212.906C218.462 212.77 218.364 212.633 218.188 212.496C218.032 212.359 217.896 212.271 217.778 212.232C217.642 212.174 217.495 212.145 217.339 212.145C217.202 212.125 217.065 212.105 216.929 212.086C216.812 212.047 216.704 211.998 216.606 211.939C216.528 211.881 216.489 211.773 216.489 211.617C216.489 211.422 216.616 211.285 216.87 211.207C217.144 211.109 217.466 211.051 217.837 211.031C218.208 210.992 218.589 210.973 218.979 210.973C219.39 210.973 219.712 210.953 219.946 210.914C220.239 210.855 220.542 210.729 220.854 210.533C221.187 210.338 221.519 210.25 221.851 210.27C222.046 210.27 222.192 210.279 222.29 210.299C222.388 210.318 222.466 210.348 222.524 210.387C222.583 210.426 222.632 210.484 222.671 210.562C222.729 210.621 222.788 210.699 222.847 210.797C222.964 211.227 222.983 211.617 222.905 211.969C222.827 212.301 222.71 212.633 222.554 212.965C222.495 213.141 222.456 213.326 222.437 213.521C222.437 213.697 222.417 213.863 222.378 214.02C222.339 214.176 222.251 214.342 222.114 214.518C221.997 214.693 221.88 214.889 221.763 215.104C221.665 215.318 221.577 215.543 221.499 215.777C221.44 216.012 221.362 216.236 221.265 216.451C221.226 216.51 221.177 216.568 221.118 216.627C221.079 216.666 221.04 216.725 221.001 216.803C220.903 217.018 220.845 217.232 220.825 217.447C220.806 217.643 220.757 217.818 220.679 217.975C220.562 218.346 220.376 218.668 220.122 218.941C219.888 219.215 219.683 219.488 219.507 219.762C219.37 219.801 219.243 219.82 219.126 219.82C219.009 219.84 218.901 219.859 218.804 219.879C218.706 219.918 218.647 219.889 218.628 219.791C218.628 219.693 218.589 219.625 218.511 219.586C218.296 219.742 218.052 219.908 217.778 220.084C217.524 220.26 217.231 220.289 216.899 220.172C216.86 219.957 216.87 219.762 216.929 219.586C216.987 219.43 217.056 219.273 217.134 219.117C217.231 218.98 217.329 218.844 217.427 218.707C217.524 218.57 217.593 218.414 217.632 218.238C217.358 218.277 217.095 218.395 216.841 218.59C216.587 218.785 216.313 218.932 216.021 219.029C215.923 219.068 215.806 219.068 215.669 219.029C215.552 219.01 215.425 219.02 215.288 219.059C214.8 219.137 214.263 219.254 213.677 219.41C213.091 219.566 212.563 219.596 212.095 219.498C211.978 219.479 211.88 219.43 211.802 219.352C211.743 219.293 211.665 219.234 211.567 219.176C211.353 219.059 211.108 218.98 210.835 218.941C210.562 218.902 210.317 218.844 210.103 218.766C209.731 218.648 209.429 218.463 209.194 218.209C208.96 217.936 208.735 217.701 208.521 217.506C208.501 217.35 208.442 217.213 208.345 217.096C208.247 216.959 208.13 216.842 207.993 216.744C207.876 216.627 207.759 216.52 207.642 216.422C207.524 216.305 207.437 216.178 207.378 216.041C207.319 215.885 207.28 215.709 207.261 215.514C207.261 215.318 207.231 215.123 207.173 214.928C207.095 214.615 207.007 214.342 206.909 214.107C206.831 213.854 206.763 213.609 206.704 213.375C206.665 213.121 206.646 212.857 206.646 212.584C206.646 212.311 206.694 211.998 206.792 211.646C206.909 211.314 207.046 210.963 207.202 210.592C207.358 210.221 207.505 209.879 207.642 209.566C207.876 209.078 208.169 208.57 208.521 208.043C208.735 207.73 208.94 207.467 209.136 207.252C209.331 207.018 209.536 206.783 209.751 206.549C210.103 206.139 210.562 205.758 211.128 205.406C211.714 205.035 212.28 204.713 212.827 204.439C213.296 204.225 213.823 204.01 214.409 203.795C215.015 203.58 215.649 203.453 216.313 203.414C216.899 203.355 217.476 203.385 218.042 203.502C218.608 203.619 219.175 203.697 219.741 203.736C220.073 203.756 220.435 203.775 220.825 203.795C221.216 203.795 221.577 203.756 221.909 203.678C222.007 203.658 222.104 203.639 222.202 203.619C222.3 203.58 222.388 203.551 222.466 203.531C222.563 203.512 222.651 203.521 222.729 203.561C222.827 203.58 222.915 203.639 222.993 203.736Z" fill="url(#paint0_linear_110_5029)"/>
<defs>
<linearGradient id="paint0_linear_110_5029" x1="29.0475" y1="189.348" x2="40.0133" y2="258.012" gradientUnits="userSpaceOnUse">
<stop stop-color="#FFD800"/>
<stop offset="1" stop-color="#E45904"/>
</linearGradient>
</defs>
</svg>
